<svg xmlns="http://www.w3.org/2000/svg" xmlns:xlink="http://www.w3.org/1999/xlink" width="3056.653" height="892.265" viewBox="0 0 808.739 236.078"><defs><linearGradient id="a"><stop offset="0" style="stop-color:#1aa782;stop-opacity:1"/><stop offset=".359" style="stop-color:#1ccd92;stop-opacity:1"/><stop offset="1" style="stop-color:#20a8c3;stop-opacity:1"/></linearGradient><linearGradient xlink:href="#a" id="b" x1="776.385" x2="1612.042" y1="1510.119" y2="1510.119" gradientTransform="translate(-342.236 -69.409)" gradientUnits="userSpaceOnUse" spreadMethod="pad"/><linearGradient xlink:href="#a" id="c" x1="776.385" x2="1612.042" y1="1510.119" y2="1510.119" gradientTransform="translate(-342.236 -69.409)" gradientUnits="userSpaceOnUse" spreadMethod="pad"/><linearGradient xlink:href="#a" id="d" x1="776.385" x2="1612.042" y1="1510.119" y2="1510.119" gradientTransform="translate(-342.236 -69.409)" gradientUnits="userSpaceOnUse" spreadMethod="pad"/><linearGradient xlink:href="#a" id="e" x1="776.385" x2="1612.042" y1="1510.119" y2="1510.119" gradientTransform="translate(-342.236 -69.409)" gradientUnits="userSpaceOnUse" spreadMethod="pad"/><linearGradient xlink:href="#a" id="f" x1="776.385" x2="1612.042" y1="1510.119" y2="1510.119" gradientTransform="translate(-342.236 -69.409)" gradientUnits="userSpaceOnUse" spreadMethod="pad"/><linearGradient xlink:href="#a" id="g" x1="776.385" x2="1612.042" y1="1510.119" y2="1510.119" gradientTransform="translate(-342.236 -69.409)" gradientUnits="userSpaceOnUse" spreadMethod="pad"/><linearGradient xlink:href="#a" id="h" x1="776.385" x2="1612.042" y1="1510.119" y2="1510.119" gradientTransform="translate(-342.236 -69.409)" gradientUnits="userSpaceOnUse" spreadMethod="pad"/><linearGradient xlink:href="#a" id="i" x1="776.385" x2="1612.042" y1="1510.119" y2="1510.119" gradientTransform="translate(-342.236 -69.409)" gradientUnits="userSpaceOnUse" spreadMethod="pad"/></defs><g transform="translate(-442.792 -1322.67)"><path d="M494.897 1507.63c18.768 0 33.585-9.136 42.722-24.694l-7.162-16.298c-5.432 9.137-14.57 14.57-25.929 14.57-18.274 0-29.88-14.323-29.88-37.042 0-21.237 10.619-34.819 28.645-34.819 11.854 0 21.485 5.68 27.164 15.31l8.89-19.014c-8.149-14.817-22.225-22.966-40.499-22.966-33.584 0-56.056 25.436-56.056 63.465 0 37.042 21.237 61.489 52.105 61.489zm43.463-2.468h20.249V1322.67h-30.621v160.76z" style="fill:url(#c)"/><path d="M652.694 1507.63c14.323 0 29.387-2.715 42.475-8.148l-6.915-21.978c-9.63 3.95-20.25 6.173-30.374 6.173-25.93 0-39.758-14.322-39.758-42.227 0-22.472 9.384-34.325 26.176-34.325 15.558 0 24.448 9.878 24.448 27.658h-54.822v19.261h83.22c.74-4.939 1.235-12.347 1.235-18.027 0-32.596-20.003-53.34-51.858-53.34-35.807 0-59.76 25.683-59.76 62.971 0 38.523 24.94 61.983 65.933 61.983z" style="fill:url(#d)"/><path d="M760.361 1507.137c7.656 0 16.546-1.729 22.966-4.445l-6.42-21.237c-2.717.988-5.433 1.482-7.656 1.482-7.408 0-11.359-4.692-11.359-13.088v-147.18h-31.115v151.13c0 20.744 12.594 33.338 33.584 33.338z" style="fill:url(#e)"/><path d="M802.095 1505.161h31.361v-120.014h-31.361Zm15.804-141.992c11.853 0 19.509-7.656 19.509-19.509 0-11.853-7.656-19.509-19.509-19.509-11.606 0-19.262 7.656-19.262 19.51 0 11.852 7.656 19.508 19.262 19.508z" style="fill:url(#f)"/><path d="M928.53 1507.63c33.831 0 56.55-25.434 56.55-63.71 0-36.795-21.484-61.243-53.093-61.243-21.978 0-38.03 11.854-45.932 31.856l9.384 12.1c4.692-11.606 14.57-17.286 26.423-17.286 19.262 0 31.115 14.323 31.115 36.795 0 21.731-10.618 35.066-28.645 35.066-12.594 0-22.72-6.668-28.152-17.78l-10.618 16.051c7.408 18.521 22.224 28.152 42.968 28.152zm-59.267-2.468h20.003l10.618-21.732v-160.76h-30.62z" style="fill:url(#g)"/><path d="M1088.549 1505.161h22.472v-72.107c0-32.35-18.52-50.377-53.834-50.377-17.286 0-35.56 4.445-49.636 11.607l7.409 21.978c12.594-4.94 24.447-7.409 35.56-7.409 19.261 0 29.633 7.409 29.633 21.731v51.612zm-41.98 2.47c26.423 0 45.684-15.064 51.364-40.993l-10.125-4.692c-4.198 12.841-16.298 20.99-30.868 20.99-12.1 0-20.25-6.173-20.25-15.063 0-11.606 14.077-16.298 48.649-16.298v-17.533c-55.563 0-80.257 11.606-80.257 38.029 0 21.484 16.298 35.56 41.486 35.56z" style="fill:url(#h)"/><path d="M1152.26 1558.748h33.831l19.262-53.587 46.179-120.014h-31.362l-33.832 103.222 7.656.247-31.856-103.47h-34.82l46.673 120.016z" style="fill:url(#i)"/></g></svg>