<?xml version="1.0" encoding="UTF-8" standalone="no"?><svg version="1.1" viewBox="0 0 682.52 419.31" width="1365.04" height="838.63" sodipodi:docname="lecture.svg" xmlns:inkscape="http://www.inkscape.org/namespaces/inkscape" xmlns:sodipodi="http://sodipodi.sourceforge.net/DTD/sodipodi-0.dtd" xmlns="http://www.w3.org/2000/svg" xmlns:svg="http://www.w3.org/2000/svg"><sodipodi:namedview pagecolor="#ffffff" bordercolor="#000000" borderopacity=".25" inkscape:showpageshadow="2" inkscape:pageopacity="0" inkscape:pagecheckerboard="0" inkscape:deskcolor="#d1d1d1"/><defs/><g stroke-linecap="round"><g transform="translate(63.005 217.375)"><path d="M0 0c.92-4.85 1.58-21.76 5.52-29.07s12.09-14.27 18.13-14.8 13.86 4.82 18.13 11.63S56.23-8.39 49.27-3.02C42.31 2.36 8.21-.5 0 0m0 0c.92-4.85 1.58-21.76 5.52-29.07s12.09-14.27 18.13-14.8 13.86 4.82 18.13 11.63S56.23-8.39 49.27-3.02C42.31 2.36 8.21-.5 0 0" stroke="#1971c2" stroke-width="2" fill="none"/></g></g><mask/><g stroke-linecap="round" transform="translate(75.46 150.683)"><path d="M25.23 11.04c0 .64-.07 1.28-.2 1.91-.12.63-.32 1.26-.56 1.86-.25.6-.57 1.19-.93 1.74-.37.56-.8 1.09-1.26 1.58-.47.49-1 .95-1.56 1.36s-1.17.78-1.8 1.1-1.31.6-1.99.82c-.69.22-1.41.38-2.13.5-.72.11-1.46.16-2.19.16s-1.47-.05-2.19-.16c-.72-.12-1.43-.28-2.12-.5s-1.36-.5-1.99-.82c-.64-.32-1.25-.69-1.8-1.1-.56-.41-1.09-.87-1.56-1.36s-.9-1.02-1.26-1.58c-.37-.55-.68-1.14-.93-1.74s-.44-1.23-.57-1.86S0 11.68 0 11.04s.06-1.29.19-1.92.32-1.26.57-1.86.56-1.19.93-1.74c.36-.56.79-1.09 1.26-1.58s1-.95 1.56-1.36c.55-.41 1.16-.78 1.8-1.1.63-.32 1.3-.6 1.99-.81.69-.22 1.4-.39 2.12-.5S11.88 0 12.61 0s1.47.06 2.19.17 1.44.28 2.13.5a13.113 13.113 0 0 1 3.79 1.91c.56.41 1.09.87 1.56 1.36.46.49.89 1.02 1.26 1.58.36.55.68 1.14.93 1.74.24.6.44 1.23.56 1.86.13.63.16 1.6.2 1.92.03.32.03-.32 0 0" stroke="#1971c2" stroke-width="2" fill="none"/></g><g stroke-linecap="round"><g transform="translate(264.066 390.326)"><path d="M0 0c.77-4.05 1.32-18.2 4.61-24.31 3.3-6.12 10.11-11.94 15.17-12.38 5.05-.44 11.59 4.03 15.16 9.73 3.57 5.69 12.08 19.94 6.26 24.44C35.38 1.97 6.87-.42 0 0m0 0c.77-4.05 1.32-18.2 4.61-24.31 3.3-6.12 10.11-11.94 15.17-12.38 5.05-.44 11.59 4.03 15.16 9.73 3.57 5.69 12.08 19.94 6.26 24.44C35.38 1.97 6.87-.42 0 0" stroke="#2f9e44" stroke-width="2" fill="none"/></g></g><mask/><g stroke-linecap="round" transform="translate(274.48 334.557)"><path d="M21.09 9.23c0 .53-.05 1.08-.16 1.6-.1.53-.26 1.05-.47 1.56-.21.5-.47.99-.78 1.45-.3.47-.66.91-1.05 1.32-.4.41-.84.8-1.3 1.14-.47.34-.98.65-1.51.92s-1.09.5-1.67.68c-.57.18-1.17.32-1.77.42-.6.09-1.22.14-1.83.14s-1.23-.05-1.83-.14c-.61-.1-1.21-.24-1.78-.42s-1.14-.41-1.67-.68-1.03-.58-1.5-.92-.91-.73-1.3-1.14-.75-.85-1.06-1.32c-.3-.46-.57-.95-.77-1.45q-.315-.765-.48-1.56C.05 10.31 0 9.76 0 9.23c0-.54.05-1.08.16-1.6.11-.53.27-1.06.48-1.56.2-.5.47-.99.77-1.46.31-.46.67-.9 1.06-1.31s.83-.8 1.3-1.14.97-.66 1.5-.92C5.8.97 6.37.74 6.94.56 7.51.37 8.11.23 8.72.14 9.32.05 9.94 0 10.55 0s1.23.05 1.83.14 1.2.23 1.77.42c.58.18 1.14.41 1.67.68.53.26 1.04.58 1.51.92.46.34.9.73 1.3 1.14.39.41.75.85 1.05 1.31.31.47.57.96.78 1.46s.37 1.03.47 1.56c.11.52.14 1.33.16 1.6.03.27.03-.27 0 0" stroke="#2f9e44" stroke-width="2" fill="none"/></g><g stroke-linecap="round"><g stroke-opacity=".4" fill-opacity=".4" transform="translate(275.846 321.734)"><path d="M0 0c.77-4.05 1.32-18.2 4.61-24.31 3.3-6.12 10.11-11.94 15.17-12.38 5.05-.44 11.59 4.03 15.16 9.73 3.57 5.69 12.08 19.94 6.26 24.44C35.38 1.97 6.87-.42 0 0m0 0c.77-4.05 1.32-18.2 4.61-24.31 3.3-6.12 10.11-11.94 15.17-12.38 5.05-.44 11.59 4.03 15.16 9.73 3.57 5.69 12.08 19.94 6.26 24.44C35.38 1.97 6.87-.42 0 0" stroke="#2f9e44" stroke-width="2" fill="none"/></g></g><mask/><g stroke-opacity=".4" fill-opacity=".4" stroke-linecap="round" transform="translate(286.26 265.966)"><path d="M21.09 9.23c0 .53-.05 1.08-.16 1.6-.1.53-.26 1.05-.47 1.56-.21.5-.47.99-.78 1.45-.3.47-.66.91-1.05 1.32-.4.41-.84.8-1.3 1.14-.47.34-.98.65-1.51.92s-1.09.5-1.67.68c-.57.18-1.17.32-1.77.42-.6.09-1.22.14-1.83.14s-1.23-.05-1.83-.14c-.61-.1-1.21-.24-1.78-.42s-1.14-.41-1.67-.68-1.03-.58-1.5-.92-.91-.73-1.3-1.14-.75-.85-1.06-1.32c-.3-.46-.57-.95-.77-1.45q-.315-.765-.48-1.56C.05 10.31 0 9.76 0 9.23c0-.54.05-1.08.16-1.6.11-.53.27-1.06.48-1.56.2-.5.47-.99.77-1.46.31-.46.67-.9 1.06-1.31s.83-.8 1.3-1.14.97-.66 1.5-.92C5.8.97 6.37.74 6.94.56 7.51.37 8.11.23 8.72.14 9.32.05 9.94 0 10.55 0s1.23.05 1.83.14 1.2.23 1.77.42c.58.18 1.14.41 1.67.68.53.26 1.04.58 1.51.92.46.34.9.73 1.3 1.14.39.41.75.85 1.05 1.31.31.47.57.96.78 1.46s.37 1.03.47 1.56c.11.52.14 1.33.16 1.6.03.27.03-.27 0 0" stroke="#2f9e44" stroke-width="2" fill="none"/></g><g stroke-linecap="round"><g transform="translate(275.846 216.61)"><path d="M0 0c.77-4.05 1.32-18.2 4.61-24.31 3.3-6.12 10.11-11.94 15.17-12.38 5.05-.44 11.59 4.03 15.16 9.73 3.57 5.69 12.08 19.94 6.26 24.44C35.38 1.97 6.87-.42 0 0m0 0c.77-4.05 1.32-18.2 4.61-24.31 3.3-6.12 10.11-11.94 15.17-12.38 5.05-.44 11.59 4.03 15.16 9.73 3.57 5.69 12.08 19.94 6.26 24.44C35.38 1.97 6.87-.42 0 0" stroke="#2f9e44" stroke-width="2" fill="none"/></g></g><mask/><g stroke-linecap="round" transform="translate(286.26 160.842)"><path d="M21.09 9.23c0 .53-.05 1.08-.16 1.6-.1.53-.26 1.05-.47 1.56-.21.5-.47.99-.78 1.45-.3.47-.66.91-1.05 1.32-.4.41-.84.8-1.3 1.14-.47.34-.98.65-1.51.92s-1.09.5-1.67.68c-.57.18-1.17.32-1.77.42-.6.09-1.22.14-1.83.14s-1.23-.05-1.83-.14c-.61-.1-1.21-.24-1.78-.42s-1.14-.41-1.67-.68-1.03-.58-1.5-.92-.91-.73-1.3-1.14-.75-.85-1.06-1.32c-.3-.46-.57-.95-.77-1.45q-.315-.765-.48-1.56C.05 10.31 0 9.76 0 9.23c0-.54.05-1.08.16-1.6.11-.53.27-1.06.48-1.56.2-.5.47-.99.77-1.46.31-.46.67-.9 1.06-1.31s.83-.8 1.3-1.14.97-.66 1.5-.92C5.8.97 6.37.74 6.94.56 7.51.37 8.11.23 8.72.14 9.32.05 9.94 0 10.55 0s1.23.05 1.83.14 1.2.23 1.77.42c.58.18 1.14.41 1.67.68.53.26 1.04.58 1.51.92.46.34.9.73 1.3 1.14.39.41.75.85 1.05 1.31.31.47.57.96.78 1.46s.37 1.03.47 1.56c.11.52.14 1.33.16 1.6.03.27.03-.27 0 0" stroke="#2f9e44" stroke-width="2" fill="none"/></g><g stroke-linecap="round"><g transform="translate(270.648 133.435)"><path d="M0 0c.77-4.05 1.32-18.2 4.61-24.31 3.3-6.12 10.11-11.94 15.17-12.38 5.05-.44 11.59 4.03 15.16 9.73 3.57 5.69 12.08 19.94 6.26 24.44C35.38 1.97 6.87-.42 0 0m0 0c.77-4.05 1.32-18.2 4.61-24.31 3.3-6.12 10.11-11.94 15.17-12.38 5.05-.44 11.59 4.03 15.16 9.73 3.57 5.69 12.08 19.94 6.26 24.44C35.38 1.97 6.87-.42 0 0" stroke="#2f9e44" stroke-width="2" fill="none"/></g></g><mask/><g stroke-linecap="round" transform="translate(281.062 77.667)"><path d="M21.09 9.23c0 .53-.05 1.08-.16 1.6-.1.53-.26 1.05-.47 1.56-.21.5-.47.99-.78 1.45-.3.47-.66.91-1.05 1.32-.4.41-.84.8-1.3 1.14-.47.34-.98.65-1.51.92s-1.09.5-1.67.68c-.57.18-1.17.32-1.77.42-.6.09-1.22.14-1.83.14s-1.23-.05-1.83-.14c-.61-.1-1.21-.24-1.78-.42s-1.14-.41-1.67-.68-1.03-.58-1.5-.92-.91-.73-1.3-1.14-.75-.85-1.06-1.32c-.3-.46-.57-.95-.77-1.45q-.315-.765-.48-1.56C.05 10.31 0 9.76 0 9.23c0-.54.05-1.08.16-1.6.11-.53.27-1.06.48-1.56.2-.5.47-.99.77-1.46.31-.46.67-.9 1.06-1.31s.83-.8 1.3-1.14.97-.66 1.5-.92C5.8.97 6.37.74 6.94.56 7.51.37 8.11.23 8.72.14 9.32.05 9.94 0 10.55 0s1.23.05 1.83.14 1.2.23 1.77.42c.58.18 1.14.41 1.67.68.53.26 1.04.58 1.51.92.46.34.9.73 1.3 1.14.39.41.75.85 1.05 1.31.31.47.57.96.78 1.46s.37 1.03.47 1.56c.11.52.14 1.33.16 1.6.03.27.03-.27 0 0" stroke="#2f9e44" stroke-width="2" fill="none"/></g><g stroke-linecap="round"><g transform="translate(341.116 129.392)"><path d="M0 0c.77-4.05 1.32-18.2 4.61-24.31 3.3-6.12 10.11-11.94 15.17-12.38 5.05-.44 11.59 4.03 15.16 9.73 3.57 5.69 12.08 19.94 6.26 24.44C35.38 1.97 6.87-.42 0 0m0 0c.77-4.05 1.32-18.2 4.61-24.31 3.3-6.12 10.11-11.94 15.17-12.38 5.05-.44 11.59 4.03 15.16 9.73 3.57 5.69 12.08 19.94 6.26 24.44C35.38 1.97 6.87-.42 0 0" stroke="#2f9e44" stroke-width="2" fill="none"/></g></g><mask/><g stroke-linecap="round" transform="translate(351.53 73.624)"><path d="M21.09 9.23c0 .53-.05 1.08-.16 1.6-.1.53-.26 1.05-.47 1.56-.21.5-.47.99-.78 1.45-.3.47-.66.91-1.05 1.32-.4.41-.84.8-1.3 1.14-.47.34-.98.65-1.51.92s-1.09.5-1.67.68c-.57.18-1.17.32-1.77.42-.6.09-1.22.14-1.83.14s-1.23-.05-1.83-.14c-.61-.1-1.21-.24-1.78-.42s-1.14-.41-1.67-.68-1.03-.58-1.5-.92-.91-.73-1.3-1.14-.75-.85-1.06-1.32c-.3-.46-.57-.95-.77-1.45q-.315-.765-.48-1.56C.05 10.31 0 9.76 0 9.23c0-.54.05-1.08.16-1.6.11-.53.27-1.06.48-1.56.2-.5.47-.99.77-1.46.31-.46.67-.9 1.06-1.31s.83-.8 1.3-1.14.97-.66 1.5-.92C5.8.97 6.37.74 6.94.56 7.51.37 8.11.23 8.72.14 9.32.05 9.94 0 10.55 0s1.23.05 1.83.14 1.2.23 1.77.42c.58.18 1.14.41 1.67.68.53.26 1.04.58 1.51.92.46.34.9.73 1.3 1.14.39.41.75.85 1.05 1.31.31.47.57.96.78 1.46s.37 1.03.47 1.56c.11.52.14 1.33.16 1.6.03.27.03-.27 0 0" stroke="#2f9e44" stroke-width="2" fill="none"/></g><g stroke-linecap="round"><g stroke-opacity=".4" fill-opacity=".4" transform="translate(353.245 209.68)"><path d="M0 0c.77-4.05 1.32-18.2 4.61-24.31 3.3-6.12 10.11-11.94 15.17-12.38 5.05-.44 11.59 4.03 15.16 9.73 3.57 5.69 12.08 19.94 6.26 24.44C35.38 1.97 6.87-.42 0 0m0 0c.77-4.05 1.32-18.2 4.61-24.31 3.3-6.12 10.11-11.94 15.17-12.38 5.05-.44 11.59 4.03 15.16 9.73 3.57 5.69 12.08 19.94 6.26 24.44C35.38 1.97 6.87-.42 0 0" stroke="#2f9e44" stroke-width="2" fill="none"/></g></g><mask/><g stroke-opacity=".4" fill-opacity=".4" stroke-linecap="round" transform="translate(363.66 153.91)"><path d="M21.09 9.23c0 .53-.05 1.08-.16 1.6-.1.53-.26 1.05-.47 1.56-.21.5-.47.99-.78 1.45-.3.47-.66.91-1.05 1.32-.4.41-.84.8-1.3 1.14-.47.34-.98.65-1.51.92s-1.09.5-1.67.68c-.57.18-1.17.32-1.77.42-.6.09-1.22.14-1.83.14s-1.23-.05-1.83-.14c-.61-.1-1.21-.24-1.78-.42s-1.14-.41-1.67-.68-1.03-.58-1.5-.92-.91-.73-1.3-1.14-.75-.85-1.06-1.32c-.3-.46-.57-.95-.77-1.45q-.315-.765-.48-1.56C.05 10.31 0 9.76 0 9.23c0-.54.05-1.08.16-1.6.11-.53.27-1.06.48-1.56.2-.5.47-.99.77-1.46.31-.46.67-.9 1.06-1.31s.83-.8 1.3-1.14.97-.66 1.5-.92C5.8.97 6.37.74 6.94.56 7.51.37 8.11.23 8.72.14 9.32.05 9.94 0 10.55 0s1.23.05 1.83.14 1.2.23 1.77.42c.58.18 1.14.41 1.67.68.53.26 1.04.58 1.51.92.46.34.9.73 1.3 1.14.39.41.75.85 1.05 1.31.31.47.57.96.78 1.46s.37 1.03.47 1.56c.11.52.14 1.33.16 1.6.03.27.03-.27 0 0" stroke="#2f9e44" stroke-width="2" fill="none"/></g><g stroke-linecap="round"><g transform="translate(359.021 329.243)"><path d="M0 0c.77-4.05 1.32-18.2 4.61-24.31 3.3-6.12 10.11-11.94 15.17-12.38 5.05-.44 11.59 4.03 15.16 9.73 3.57 5.69 12.08 19.94 6.26 24.44C35.38 1.97 6.87-.42 0 0m0 0c.77-4.05 1.32-18.2 4.61-24.31 3.3-6.12 10.11-11.94 15.17-12.38 5.05-.44 11.59 4.03 15.16 9.73 3.57 5.69 12.08 19.94 6.26 24.44C35.38 1.97 6.87-.42 0 0" stroke="#2f9e44" stroke-width="2" fill="none"/></g></g><mask/><g stroke-linecap="round" transform="translate(369.436 273.475)"><path d="M21.09 9.23c0 .53-.05 1.08-.16 1.6-.1.53-.26 1.05-.47 1.56-.21.5-.47.99-.78 1.45-.3.47-.66.91-1.05 1.32-.4.41-.84.8-1.3 1.14-.47.34-.98.65-1.51.92s-1.09.5-1.67.68c-.57.18-1.17.32-1.77.42-.6.09-1.22.14-1.83.14s-1.23-.05-1.83-.14c-.61-.1-1.21-.24-1.78-.42s-1.14-.41-1.67-.68-1.03-.58-1.5-.92-.91-.73-1.3-1.14-.75-.85-1.06-1.32c-.3-.46-.57-.95-.77-1.45q-.315-.765-.48-1.56C.05 10.31 0 9.76 0 9.23c0-.54.05-1.08.16-1.6.11-.53.27-1.06.48-1.56.2-.5.47-.99.77-1.46.31-.46.67-.9 1.06-1.31s.83-.8 1.3-1.14.97-.66 1.5-.92C5.8.97 6.37.74 6.94.56 7.51.37 8.11.23 8.72.14 9.32.05 9.94 0 10.55 0s1.23.05 1.83.14 1.2.23 1.77.42c.58.18 1.14.41 1.67.68.53.26 1.04.58 1.51.92.46.34.9.73 1.3 1.14.39.41.75.85 1.05 1.31.31.47.57.96.78 1.46s.37 1.03.47 1.56c.11.52.14 1.33.16 1.6.03.27.03-.27 0 0" stroke="#2f9e44" stroke-width="2" fill="none"/></g><g stroke-linecap="round"><g transform="translate(354.978 406.642)"><path d="M0 0c.77-4.05 1.32-18.2 4.61-24.31 3.3-6.12 10.11-11.94 15.17-12.38 5.05-.44 11.59 4.03 15.16 9.73 3.57 5.69 12.08 19.94 6.26 24.44C35.38 1.97 6.87-.42 0 0m0 0c.77-4.05 1.32-18.2 4.61-24.31 3.3-6.12 10.11-11.94 15.17-12.38 5.05-.44 11.59 4.03 15.16 9.73 3.57 5.69 12.08 19.94 6.26 24.44C35.38 1.97 6.87-.42 0 0" stroke="#2f9e44" stroke-width="2" fill="none"/></g></g><mask/><g stroke-linecap="round" transform="translate(365.392 350.874)"><path d="M21.09 9.23c0 .53-.05 1.08-.16 1.6-.1.53-.26 1.05-.47 1.56-.21.5-.47.99-.78 1.45-.3.47-.66.91-1.05 1.32-.4.41-.84.8-1.3 1.14-.47.34-.98.65-1.51.92s-1.09.5-1.67.68c-.57.18-1.17.32-1.77.42-.6.09-1.22.14-1.83.14s-1.23-.05-1.83-.14c-.61-.1-1.21-.24-1.78-.42s-1.14-.41-1.67-.68-1.03-.58-1.5-.92-.91-.73-1.3-1.14-.75-.85-1.06-1.32c-.3-.46-.57-.95-.77-1.45q-.315-.765-.48-1.56C.05 10.31 0 9.76 0 9.23c0-.54.05-1.08.16-1.6.11-.53.27-1.06.48-1.56.2-.5.47-.99.77-1.46.31-.46.67-.9 1.06-1.31s.83-.8 1.3-1.14.97-.66 1.5-.92C5.8.97 6.37.74 6.94.56 7.51.37 8.11.23 8.72.14 9.32.05 9.94 0 10.55 0s1.23.05 1.83.14 1.2.23 1.77.42c.58.18 1.14.41 1.67.68.53.26 1.04.58 1.51.92.46.34.9.73 1.3 1.14.39.41.75.85 1.05 1.31.31.47.57.96.78 1.46s.37 1.03.47 1.56c.11.52.14 1.33.16 1.6.03.27.03-.27 0 0" stroke="#2f9e44" stroke-width="2" fill="none"/></g><g stroke-linecap="round"><g stroke-opacity=".6" fill-opacity=".6" transform="translate(427.931 403.033)"><path d="M0 0c.77-4.05 1.32-18.2 4.61-24.31 3.3-6.12 10.11-11.94 15.17-12.38 5.05-.44 11.59 4.03 15.16 9.73 3.57 5.69 12.08 19.94 6.26 24.44C35.38 1.97 6.87-.42 0 0m0 0c.77-4.05 1.32-18.2 4.61-24.31 3.3-6.12 10.11-11.94 15.17-12.38 5.05-.44 11.59 4.03 15.16 9.73 3.57 5.69 12.08 19.94 6.26 24.44C35.38 1.97 6.87-.42 0 0" stroke="#2f9e44" stroke-width="2" fill="none"/></g></g><mask/><g stroke-opacity=".6" fill-opacity=".6" stroke-linecap="round" transform="translate(438.345 347.265)"><path d="M21.09 9.23c0 .53-.05 1.08-.16 1.6-.1.53-.26 1.05-.47 1.56-.21.5-.47.99-.78 1.45-.3.47-.66.91-1.05 1.32-.4.41-.84.8-1.3 1.14-.47.34-.98.65-1.51.92s-1.09.5-1.67.68c-.57.18-1.17.32-1.77.42-.6.09-1.22.14-1.83.14s-1.23-.05-1.83-.14c-.61-.1-1.21-.24-1.78-.42s-1.14-.41-1.67-.68-1.03-.58-1.5-.92-.91-.73-1.3-1.14-.75-.85-1.06-1.32c-.3-.46-.57-.95-.77-1.45q-.315-.765-.48-1.56C.05 10.31 0 9.76 0 9.23c0-.54.05-1.08.16-1.6.11-.53.27-1.06.48-1.56.2-.5.47-.99.77-1.46.31-.46.67-.9 1.06-1.31s.83-.8 1.3-1.14.97-.66 1.5-.92C5.8.97 6.37.74 6.94.56 7.51.37 8.11.23 8.72.14 9.32.05 9.94 0 10.55 0s1.23.05 1.83.14 1.2.23 1.77.42c.58.18 1.14.41 1.67.68.53.26 1.04.58 1.51.92.46.34.9.73 1.3 1.14.39.41.75.85 1.05 1.31.31.47.57.96.78 1.46s.37 1.03.47 1.56c.11.52.14 1.33.16 1.6.03.27.03-.27 0 0" stroke="#2f9e44" stroke-width="2" fill="none"/></g><g stroke-linecap="round"><g transform="translate(432.202 310.76)"><path d="M0 0c.77-4.05 1.32-18.2 4.61-24.31 3.3-6.12 10.11-11.94 15.17-12.38 5.05-.44 11.59 4.03 15.16 9.73 3.57 5.69 12.08 19.94 6.26 24.44C35.38 1.97 6.87-.42 0 0m0 0c.77-4.05 1.32-18.2 4.61-24.31 3.3-6.12 10.11-11.94 15.17-12.38 5.05-.44 11.59 4.03 15.16 9.73 3.57 5.69 12.08 19.94 6.26 24.44C35.38 1.97 6.87-.42 0 0" stroke="#2f9e44" stroke-width="2" fill="none"/></g></g><mask/><g stroke-linecap="round" transform="translate(442.616 254.991)"><path d="M21.09 9.23c0 .53-.05 1.08-.16 1.6-.1.53-.26 1.05-.47 1.56-.21.5-.47.99-.78 1.45-.3.47-.66.91-1.05 1.32-.4.41-.84.8-1.3 1.14-.47.34-.98.65-1.51.92s-1.09.5-1.67.68c-.57.18-1.17.32-1.77.42-.6.09-1.22.14-1.83.14s-1.23-.05-1.83-.14c-.61-.1-1.21-.24-1.78-.42s-1.14-.41-1.67-.68-1.03-.58-1.5-.92-.91-.73-1.3-1.14-.75-.85-1.06-1.32c-.3-.46-.57-.95-.77-1.45q-.315-.765-.48-1.56C.05 10.31 0 9.76 0 9.23c0-.54.05-1.08.16-1.6.11-.53.27-1.06.48-1.56.2-.5.47-.99.77-1.46.31-.46.67-.9 1.06-1.31s.83-.8 1.3-1.14.97-.66 1.5-.92C5.8.97 6.37.74 6.94.56 7.51.37 8.11.23 8.72.14 9.32.05 9.94 0 10.55 0s1.23.05 1.83.14 1.2.23 1.77.42c.58.18 1.14.41 1.67.68.53.26 1.04.58 1.51.92.46.34.9.73 1.3 1.14.39.41.75.85 1.05 1.31.31.47.57.96.78 1.46s.37 1.03.47 1.56c.11.52.14 1.33.16 1.6.03.27.03-.27 0 0" stroke="#2f9e44" stroke-width="2" fill="none"/></g><g stroke-linecap="round"><g stroke-opacity=".6" fill-opacity=".6" transform="translate(429.314 201.593)"><path d="M0 0c.77-4.05 1.32-18.2 4.61-24.31 3.3-6.12 10.11-11.94 15.17-12.38 5.05-.44 11.59 4.03 15.16 9.73 3.57 5.69 12.08 19.94 6.26 24.44C35.38 1.97 6.87-.42 0 0m0 0c.77-4.05 1.32-18.2 4.61-24.31 3.3-6.12 10.11-11.94 15.17-12.38 5.05-.44 11.59 4.03 15.16 9.73 3.57 5.69 12.08 19.94 6.26 24.44C35.38 1.97 6.87-.42 0 0" stroke="#2f9e44" stroke-width="2" fill="none"/></g></g><mask/><g stroke-opacity=".6" fill-opacity=".6" stroke-linecap="round" transform="translate(439.728 145.824)"><path d="M21.09 9.23c0 .53-.05 1.08-.16 1.6-.1.53-.26 1.05-.47 1.56-.21.5-.47.99-.78 1.45-.3.47-.66.91-1.05 1.32-.4.41-.84.8-1.3 1.14-.47.34-.98.65-1.51.92s-1.09.5-1.67.68c-.57.18-1.17.32-1.77.42-.6.09-1.22.14-1.83.14s-1.23-.05-1.83-.14c-.61-.1-1.21-.24-1.78-.42s-1.14-.41-1.67-.68-1.03-.58-1.5-.92-.91-.73-1.3-1.14-.75-.85-1.06-1.32c-.3-.46-.57-.95-.77-1.45q-.315-.765-.48-1.56C.05 10.31 0 9.76 0 9.23c0-.54.05-1.08.16-1.6.11-.53.27-1.06.48-1.56.2-.5.47-.99.77-1.46.31-.46.67-.9 1.06-1.31s.83-.8 1.3-1.14.97-.66 1.5-.92C5.8.97 6.37.74 6.94.56 7.51.37 8.11.23 8.72.14 9.32.05 9.94 0 10.55 0s1.23.05 1.83.14 1.2.23 1.77.42c.58.18 1.14.41 1.67.68.53.26 1.04.58 1.51.92.46.34.9.73 1.3 1.14.39.41.75.85 1.05 1.31.31.47.57.96.78 1.46s.37 1.03.47 1.56c.11.52.14 1.33.16 1.6.03.27.03-.27 0 0" stroke="#2f9e44" stroke-width="2" fill="none"/></g><g stroke-linecap="round"><g transform="translate(410.253 118.995)"><path d="M0 0c.77-4.05 1.32-18.2 4.61-24.31 3.3-6.12 10.11-11.94 15.17-12.38 5.05-.44 11.59 4.03 15.16 9.73 3.57 5.69 12.08 19.94 6.26 24.44C35.38 1.97 6.87-.42 0 0m0 0c.77-4.05 1.32-18.2 4.61-24.31 3.3-6.12 10.11-11.94 15.17-12.38 5.05-.44 11.59 4.03 15.16 9.73 3.57 5.69 12.08 19.94 6.26 24.44C35.38 1.97 6.87-.42 0 0" stroke="#2f9e44" stroke-width="2" fill="none"/></g></g><mask/><g stroke-linecap="round" transform="translate(420.667 63.227)"><path d="M21.09 9.23c0 .53-.05 1.08-.16 1.6-.1.53-.26 1.05-.47 1.56-.21.5-.47.99-.78 1.45-.3.47-.66.91-1.05 1.32-.4.41-.84.8-1.3 1.14-.47.34-.98.65-1.51.92s-1.09.5-1.67.68c-.57.18-1.17.32-1.77.42-.6.09-1.22.14-1.83.14s-1.23-.05-1.83-.14c-.61-.1-1.21-.24-1.78-.42s-1.14-.41-1.67-.68-1.03-.58-1.5-.92-.91-.73-1.3-1.14-.75-.85-1.06-1.32c-.3-.46-.57-.95-.77-1.45q-.315-.765-.48-1.56C.05 10.31 0 9.76 0 9.23c0-.54.05-1.08.16-1.6.11-.53.27-1.06.48-1.56.2-.5.47-.99.77-1.46.31-.46.67-.9 1.06-1.31s.83-.8 1.3-1.14.97-.66 1.5-.92C5.8.97 6.37.74 6.94.56 7.51.37 8.11.23 8.72.14 9.32.05 9.94 0 10.55 0s1.23.05 1.83.14 1.2.23 1.77.42c.58.18 1.14.41 1.67.68.53.26 1.04.58 1.51.92.46.34.9.73 1.3 1.14.39.41.75.85 1.05 1.31.31.47.57.96.78 1.46s.37 1.03.47 1.56c.11.52.14 1.33.16 1.6.03.27.03-.27 0 0" stroke="#2f9e44" stroke-width="2" fill="none"/></g><g stroke-linecap="round"><g stroke-opacity=".6" fill-opacity=".6" transform="translate(480.721 114.374)"><path d="M0 0c.77-4.05 1.32-18.2 4.61-24.31 3.3-6.12 10.11-11.94 15.17-12.38 5.05-.44 11.59 4.03 15.16 9.73 3.57 5.69 12.08 19.94 6.26 24.44C35.38 1.97 6.87-.42 0 0m0 0c.77-4.05 1.32-18.2 4.61-24.31 3.3-6.12 10.11-11.94 15.17-12.38 5.05-.44 11.59 4.03 15.16 9.73 3.57 5.69 12.08 19.94 6.26 24.44C35.38 1.97 6.87-.42 0 0" stroke="#2f9e44" stroke-width="2" fill="none"/></g></g><mask/><g stroke-opacity=".6" fill-opacity=".6" stroke-linecap="round" transform="translate(491.135 58.606)"><path d="M21.09 9.23c0 .53-.05 1.08-.16 1.6-.1.53-.26 1.05-.47 1.56-.21.5-.47.99-.78 1.45-.3.47-.66.91-1.05 1.32-.4.41-.84.8-1.3 1.14-.47.34-.98.65-1.51.92s-1.09.5-1.67.68c-.57.18-1.17.32-1.77.42-.6.09-1.22.14-1.83.14s-1.23-.05-1.83-.14c-.61-.1-1.21-.24-1.78-.42s-1.14-.41-1.67-.68-1.03-.58-1.5-.92-.91-.73-1.3-1.14-.75-.85-1.06-1.32c-.3-.46-.57-.95-.77-1.45q-.315-.765-.48-1.56C.05 10.31 0 9.76 0 9.23c0-.54.05-1.08.16-1.6.11-.53.27-1.06.48-1.56.2-.5.47-.99.77-1.46.31-.46.67-.9 1.06-1.31s.83-.8 1.3-1.14.97-.66 1.5-.92C5.8.97 6.37.74 6.94.56 7.51.37 8.11.23 8.72.14 9.32.05 9.94 0 10.55 0s1.23.05 1.83.14 1.2.23 1.77.42c.58.18 1.14.41 1.67.68.53.26 1.04.58 1.51.92.46.34.9.73 1.3 1.14.39.41.75.85 1.05 1.31.31.47.57.96.78 1.46s.37 1.03.47 1.56c.11.52.14 1.33.16 1.6.03.27.03-.27 0 0" stroke="#2f9e44" stroke-width="2" fill="none"/></g><g stroke-linecap="round"><g stroke-opacity=".4" fill-opacity=".4" transform="translate(492.85 195.817)"><path d="M0 0c.77-4.05 1.32-18.2 4.61-24.31 3.3-6.12 10.11-11.94 15.17-12.38 5.05-.44 11.59 4.03 15.16 9.73 3.57 5.69 12.08 19.94 6.26 24.44C35.38 1.97 6.87-.42 0 0m0 0c.77-4.05 1.32-18.2 4.61-24.31 3.3-6.12 10.11-11.94 15.17-12.38 5.05-.44 11.59 4.03 15.16 9.73 3.57 5.69 12.08 19.94 6.26 24.44C35.38 1.97 6.87-.42 0 0" stroke="#2f9e44" stroke-width="2" fill="none"/></g></g><mask/><g stroke-opacity=".4" fill-opacity=".4" stroke-linecap="round" transform="translate(503.265 140.048)"><path d="M21.09 9.23c0 .53-.05 1.08-.16 1.6-.1.53-.26 1.05-.47 1.56-.21.5-.47.99-.78 1.45-.3.47-.66.91-1.05 1.32-.4.41-.84.8-1.3 1.14-.47.34-.98.65-1.51.92s-1.09.5-1.67.68c-.57.18-1.17.32-1.77.42-.6.09-1.22.14-1.83.14s-1.23-.05-1.83-.14c-.61-.1-1.21-.24-1.78-.42s-1.14-.41-1.67-.68-1.03-.58-1.5-.92-.91-.73-1.3-1.14-.75-.85-1.06-1.32c-.3-.46-.57-.95-.77-1.45q-.315-.765-.48-1.56C.05 10.31 0 9.76 0 9.23c0-.54.05-1.08.16-1.6.11-.53.27-1.06.48-1.56.2-.5.47-.99.77-1.46.31-.46.67-.9 1.06-1.31s.83-.8 1.3-1.14.97-.66 1.5-.92C5.8.97 6.37.74 6.94.56 7.51.37 8.11.23 8.72.14 9.32.05 9.94 0 10.55 0s1.23.05 1.83.14 1.2.23 1.77.42c.58.18 1.14.41 1.67.68.53.26 1.04.58 1.51.92.46.34.9.73 1.3 1.14.39.41.75.85 1.05 1.31.31.47.57.96.78 1.46s.37 1.03.47 1.56c.11.52.14 1.33.16 1.6.03.27.03-.27 0 0" stroke="#2f9e44" stroke-width="2" fill="none"/></g><g stroke-linecap="round"><g transform="translate(499.204 306.717)"><path d="M0 0c.77-4.05 1.32-18.2 4.61-24.31 3.3-6.12 10.11-11.94 15.17-12.38 5.05-.44 11.59 4.03 15.16 9.73 3.57 5.69 12.08 19.94 6.26 24.44C35.38 1.97 6.87-.42 0 0m0 0c.77-4.05 1.32-18.2 4.61-24.31 3.3-6.12 10.11-11.94 15.17-12.38 5.05-.44 11.59 4.03 15.16 9.73 3.57 5.69 12.08 19.94 6.26 24.44C35.38 1.97 6.87-.42 0 0" stroke="#2f9e44" stroke-width="2" fill="none"/></g></g><mask/><g stroke-linecap="round" transform="translate(509.619 250.948)"><path d="M21.09 9.23c0 .53-.05 1.08-.16 1.6-.1.53-.26 1.05-.47 1.56-.21.5-.47.99-.78 1.45-.3.47-.66.91-1.05 1.32-.4.41-.84.8-1.3 1.14-.47.34-.98.65-1.51.92s-1.09.5-1.67.68c-.57.18-1.17.32-1.77.42-.6.09-1.22.14-1.83.14s-1.23-.05-1.83-.14c-.61-.1-1.21-.24-1.78-.42s-1.14-.41-1.67-.68-1.03-.58-1.5-.92-.91-.73-1.3-1.14-.75-.85-1.06-1.32c-.3-.46-.57-.95-.77-1.45q-.315-.765-.48-1.56C.05 10.31 0 9.76 0 9.23c0-.54.05-1.08.16-1.6.11-.53.27-1.06.48-1.56.2-.5.47-.99.77-1.46.31-.46.67-.9 1.06-1.31s.83-.8 1.3-1.14.97-.66 1.5-.92C5.8.97 6.37.74 6.94.56 7.51.37 8.11.23 8.72.14 9.32.05 9.94 0 10.55 0s1.23.05 1.83.14 1.2.23 1.77.42c.58.18 1.14.41 1.67.68.53.26 1.04.58 1.51.92.46.34.9.73 1.3 1.14.39.41.75.85 1.05 1.31.31.47.57.96.78 1.46s.37 1.03.47 1.56c.11.52.14 1.33.16 1.6.03.27.03-.27 0 0" stroke="#2f9e44" stroke-width="2" fill="none"/></g><g stroke-linecap="round"><g transform="translate(492.273 389.892)"><path d="M0 0c.77-4.05 1.32-18.2 4.61-24.31 3.3-6.12 10.11-11.94 15.17-12.38 5.05-.44 11.59 4.03 15.16 9.73 3.57 5.69 12.08 19.94 6.26 24.44C35.38 1.97 6.87-.42 0 0m0 0c.77-4.05 1.32-18.2 4.61-24.31 3.3-6.12 10.11-11.94 15.17-12.38 5.05-.44 11.59 4.03 15.16 9.73 3.57 5.69 12.08 19.94 6.26 24.44C35.38 1.97 6.87-.42 0 0" stroke="#2f9e44" stroke-width="2" fill="none"/></g></g><mask/><g stroke-linecap="round" transform="translate(502.687 334.123)"><path d="M21.09 9.23c0 .53-.05 1.08-.16 1.6-.1.53-.26 1.05-.47 1.56-.21.5-.47.99-.78 1.45-.3.47-.66.91-1.05 1.32-.4.41-.84.8-1.3 1.14-.47.34-.98.65-1.51.92s-1.09.5-1.67.68c-.57.18-1.17.32-1.77.42-.6.09-1.22.14-1.83.14s-1.23-.05-1.83-.14c-.61-.1-1.21-.24-1.78-.42s-1.14-.41-1.67-.68-1.03-.58-1.5-.92-.91-.73-1.3-1.14-.75-.85-1.06-1.32c-.3-.46-.57-.95-.77-1.45q-.315-.765-.48-1.56C.05 10.31 0 9.76 0 9.23c0-.54.05-1.08.16-1.6.11-.53.27-1.06.48-1.56.2-.5.47-.99.77-1.46.31-.46.67-.9 1.06-1.31s.83-.8 1.3-1.14.97-.66 1.5-.92C5.8.97 6.37.74 6.94.56 7.51.37 8.11.23 8.72.14 9.32.05 9.94 0 10.55 0s1.23.05 1.83.14 1.2.23 1.77.42c.58.18 1.14.41 1.67.68.53.26 1.04.58 1.51.92.46.34.9.73 1.3 1.14.39.41.75.85 1.05 1.31.31.47.57.96.78 1.46s.37 1.03.47 1.56c.11.52.14 1.33.16 1.6.03.27.03-.27 0 0" stroke="#2f9e44" stroke-width="2" fill="none"/></g><g transform="translate(224.66 10)"><path d="M8.484 24.864q-.784 0-2.044-.084-2.212-.7-3.164-1.96-1.232-1.344-1.792-3.892-.196-.924-.112-2.856.112-1.96.308-2.8 0-.084.532-1.652.532-1.596.616-1.792.028-.112.056-.476.056-.364.112-.672.056-.336.168-.448.252-.308.672-.532.448-.224.812-.196.448.196.784.756.336.532.224 1.036-.056.168-.364.896-.28.7-.504 1.288-.224.56-.42 1.204t-.224.924q-.028.224-.196 1.372-.14 1.12-.168 1.568t.028 1.288q.084.812.336 1.456.532 1.064 1.064 1.736.56.644 1.428.924.812.336 1.96.336.952 0 1.372-.252.28-.112.728-.28.476-.196.756-.28.28-.112.588-.308.336-.224.56-.476l.504-.504.532-.532q.196-.224.448-.588.28-.364.532-.812.308-.56.812-2.324t.644-2.072q.056-.224.084-1.344.056-1.12.14-1.428.056-.56 0-1.064 0-.056-.196-.504-.168-.476-.168-.56-.28-.7.7-1.428.924-.14 1.596.364.252.28.504.868.28.588.224.868-.028.42.056 1.176t.084 1.4-.196 1.12q0 1.232-.588 3.248-.56 2.016-1.232 3.08-.252.392-.476.7t-.56.644q-.308.336-.448.476-.112.14-.588.588-.448.42-.588.532-1.232 1.428-4.564 2.1-.336.168-1.372.168m24.164-.112q-.28 0-.336-.28-.056-.084-.392-.616-.308-.56-.504-.784-.532-1.848-.7-3.556-.084-.196-.252-.84-.14-.672-.28-.924-.056-.224-.336-.476-.252-.28-.42-.28-.224 0-.308.056-1.848 1.568-3.36 3.892-.056.112-.728 1.232-.644 1.092-.868 1.596-.308.504-.896.364l-1.232-1.26v-.868q.14-.728.308-2.828t.224-2.492q0-.14-.14-.98-.028-.112-.028-.364 0-.448.28-.728.308-.28.756-.252.896 0 1.26.56.196.756.196 1.96 0 .392-.056.952t-.056.588q.14-.112.532-.588.392-.504.812-1.036t.504-.644q.168-.196.476-.644.336-.448.588-.728.28-.28.672-.588.588-.476 1.568-.532.308-.112.616.056.336.14.7.616.364.448.448.616.112.168.448.7.868 2.016.868 4.396l.532 2.296q0 .084.168.56.196.476.196.504.056.756-.364 1.064-.084.028-.42.168-.308.112-.476.112m23.464-.084h-1.008q-.616.028-.98.028t-.896-.028-.98-.112q-2.8-.476-4.088-2.156-.896-1.204-.7-3.192.196-1.316.756-2.212.588-.896 1.736-1.876.952-1.092 2.296-1.652t2.66-.308q.588-.028 1.204.308.644.336.896.588.28.252.924.896.392.504.448.952t-.028 1.064q-.364.672-.728.7-.084 0-.504.056-.42.028-.644-.056t-.336-.364q-.392-.98-.672-1.148-.42-.28-1.008-.308t-1.036.028q-.98.252-1.708 1.008-.728.728-1.512 1.96 0 .056-.084.56-.056.476 0 .868t.364.532q.448.56 1.904 1.092.896.336 1.988.364t1.876-.056l3.024-.168q.224.084.504.392.28.28.28.476 0 .672-1.12 1.372-1.064.392-2.828.392m10.556.14q-1.428-.308-1.988-.448-.532-.14-1.148-.56-.616-.448-.924-1.036-.28-.588-.728-1.82l.14-2.968q-.196-.308-.196-.896t.196-.868q1.204-.868 3.052-2.016 1.176-.7 2.94-.7 2.072 0 3.976.896 1.932.896 3.192 2.464 1.456 1.988.7 3.724-1.792 3.08-5.32 3.892-.448.168-1.008.252-.532.084-.868.084-.336.028-1.064 0zm1.148-2.128q1.12 0 2.324-.308 1.232-.336 2.268-1.12 1.036-.812 1.176-1.904-.028-.336-.112-.588-.056-.252-.224-.476-.14-.252-.252-.364-.084-.112-.336-.364-.224-.252-.308-.336-2.38-1.316-3.612-1.316-.868 0-1.232.168-.784.308-.84.364-.168.14-.532.392t-.504.392q-.924.7-1.008 1.372-.084.336-.112.728v.868q.028.476.028.756.196.392.644.868.448.448.784.532.644.336 1.848.336m22.764 2.352q-.168 0-.42-.112l-.504-.252q-.28-.168-.42-.224-.252-.28-.476-.616-.196-.364-.308-.588t-.224-.756q-.084-.532-.112-.644-.028-.14-.112-.84-.084-.728-.084-.784-1.764 3.472-5.18 4.368-.532-.028-.924-.084-.364-.084-.756-.336-.392-.28-.532-.364-.112-.112-.616-.644t-.616-.644q-.308-.7-.448-1.4t-.168-1.036q-.028-.364 0-1.344t.028-1.288q.168-.168.168-.532v-.168q-.084-.42.364-1.96.056-.112.308-.364.28-.28.392-.336.252-.056.756.056.532.112.616.112.532.476.532 1.764 0 .056-.084.196l-.084.168q-.56 1.204-.56 2.52-.168 1.428.644 2.772.196.084.448.224.28.112.448.168.196.056.448.056.812 0 1.596-.812 2.1-2.884 2.912-4.984l.084-1.148q.112-1.148.476-1.54.308-.392.504-.392h.196q.196-.028.336.028.168.056.392.28.252.196.336.252.532.896.448 2.128 0 1.064-.112 1.316-.028 1.036-.028 1.904 0 .84.196 1.848t.644 1.988q.448 1.26-.056 1.792-.168.28-.448.252m6.076-8.54q.728-1.456 1.652-2.324 1.036-1.036 2.436-1.176 1.372-.168 2.604.336.532.532.532.868 0 .644-.112.756-.532.532-.896.532-.028 0-.42-.056-.364-.056-.672-.084h-.644q-1.204.168-1.904.98l-.616.784q-.7.98-.868 1.428-.056.14-.308.672-.224.532-.252.812-.056 1.652.196 2.492.14.252.168.56.028.28 0 .476 0 .168-.168.532-.14.336-.224.448-.056.112-.28.504-.252.28-.532.28-.532 0-1.036-.532-.476-.532-.728-1.288l-.028-3.22q-.056-1.092-.448-5.04-.112-1.176 0-1.96.308-.616 1.176-.672.392-.056.672.14t.308.616q.028.112.084.252.084.14.084.224 0 .616.084 2.548zm9.352 6.216q.056-.112.252-.42t.28-.476q1.456.252 2.464 1.232.42.336.896.532t1.064.28q.616.056 1.008.084t1.12.028q.756-.028 1.064-.028.784 0 1.596-.308.28-.112.336-.42t-.168-.504q-.532-.392-2.772-1.484-2.212-1.092-2.352-1.176-2.408-.756-4.256-2.268-.14-.196-.476-.448-.308-.28-.504-.532-.196-.28-.252-.616-.028-1.092 1.064-1.932l1.764-1.12q2.604-1.036 4.956-1.204.056 0 .308.028.28.028.308.028.056 0 .28.028t.28.056.224.084.224.14q.084.056.196.168.112.084.168.224.084.112.14.28.168.98-.532 1.596-.14 0-.896.028t-.98.056q-.224 0-.84.084-.616.056-.952.14t-.784.252-.84.392q-.392.14-.532.448-.112.308.336.532 1.316.896 3.836 2.1t3.416 1.708q2.492 1.568 2.492 3.416 0 2.632-6.356 2.856-1.4.056-2.996-.42t-2.716-1.344q-1.12-.42-.868-2.1m28 1.988q-1.204.14-1.4-.336-.084-.14-.224-.56-.14-.448-.14-.504v-6.804q.112-.756.728-.756.336 0 .7.252t.532.588l.168.896q-.112.616.168 2.324 1.344-1.68 1.764-2.688.616-.7.532-1.428 1.232-.7 2.128-.532.504.14 1.064 1.26v3.22q.504-.56 1.372-1.736t1.288-1.68q.84-1.148 1.596-1.596 1.176.14 1.764.896.812 1.372 1.064 3.892-.028.504.056 1.064t.252 1.232.224 1.064q.28.784.196 1.428-.028.364-.364.476t-.7.028q-.616-.14-1.064-1.036-.196-.42-.364-.812-.14-.42-.28-1.008-.112-.616-.168-.812-.028-.196-.14-1.036-.112-.868-.112-.924-.196-.56-.448-.56-.112.056-.42.336t-.616.588q-.28.28-.616.644l-.392.392-.28.392-1.036 1.344-.28.392q-.112.112-.42.532-.28.392-.504.588-.196.196-.476.308-.476.084-.896-.084-.42-.196-.532-.644-.168-.224-.168-.532v-3.22h-.056q-.112-.056-.14-.028-1.54 2.156-2.996 4.844-.252.336-.364.336m20.58.168q-.868.112-1.792-.224-.924-.364-1.456-1.008-.252-.392-.364-.532-.084-.168-.28-.504-.196-.364-.28-.588-.056-.224-.14-.532t-.084-.588q0-.308.084-.616.028-.952.616-1.932.616-.98 1.232-1.568t1.596-1.4q.196-.14.28-.224 1.176-.952 3.192-.952.42 0 2.66.224.056.056.364.196.336.14.476.308.14.14.028.392l.364.364q.616.364.784.7.252.42.924 2.632.056.224.532 1.512.504 1.288.56 1.54.7 1.288.728 1.708l.14.448q-.028.14-.252.308t-.252.196q-.476.168-1.456-.168-.196-.084-.364-.196l-.224-.224q-.056-.112-.252-.392l-.252-.42-.112-.14q-.308-.728-.952-2.576-1.12 1.904-2.716 3.108-1.596 1.176-3.332 1.148m-.14-2.604q.476 0 1.316-.224 1.372-.504 2.492-1.764 1.092-1.512 1.232-2.66 0-.084.112-.644.112-.588.084-.812-.56.14-1.624.224-1.036.056-1.596.168-.728.112-1.484.7-.756.56-1.148 1.064t-1.064 1.428q-.476.588.168 1.764.504.756 1.512.756m18.564 12.908q-1.4-.56-3.388-2.128-.616-.308-.952-.504-.308-.196-.672-.588t-.504-.868q-.056-1.176.532-1.596.644-.504 1.288-.504.504 0 .84.336.14.14.728.84.588.728 1.036 1.064t.98.42q.084 0 .112-.028.84-.308 1.176-1.036.364-.7.504-1.792t.308-1.512q.056-.532.112-1.68.084-1.148.112-1.68-1.596.42-3.108.42-1.372 0-2.828-.336-1.148-.672-1.988-1.68-.812-1.036-.84-2.24.112-1.512 1.344-2.968 1.26-1.484 2.604-2.156 1.036-.868 2.576-.868 1.988 0 2.912 1.372 0 .14-.028.476 0 1.344-.308 1.344-.14 0-.364-.224-.336-.196-1.82-.364-.616-.028-1.288.392t-1.12.924q-.448.476-1.092 1.26-.14.196-.224.28-.14.14-.196.308t0 .336.112.308q.084.14.224.308.168.14.252.252.112.084.28.252.168.14.224.196.84.336 1.848.336.896 0 1.82-.28.952-.308 1.708-.98t.812-1.568q.252-3.332 1.428-3.724h.084q.756.224 1.456 1.316l.084.14-.028-.028q.056 1.232-.756 3.444-.784 2.184-.924 3.08-.896 2.968-1.316 6.328-.084.924-.42 1.652-.308.756-1.036 1.988-.84 1.26-1.372 1.624-.42.252-.924.336m11.816-23.1q-.42.084-.868-.056t-1.148-.56-.784-.448q-.476-.308-.644-.84-.14-.56.112-1.092.196-.504.672-.784t.98-.224q.168.028.252 0 .084-.056.224.028t.196.112q.084 0 .196.14.14.112.196.168.056.028.168.196.112.14.14.196.056.056.168.196t.14.196q.112.28 1.064 1.232.168.224.14.7t-.28.7zm.224 12.768q-.756.14-1.232-.336-.476-.84-.532-1.232-.056-.336-.168-1.456-.112-1.148-.224-2.38-.112-1.26-.14-1.484-.056-.756 0-1.596.42-.728 1.4-.532.364.168.728 1.064 0 .588.084 1.232.112.644.196 1.092.112.448.308 1.176t.28 1.12q0 .224-.056.728-.028.476-.084.924-.028.448-.028.476-.028.084-.084.308-.028.224-.084.364-.028.14-.14.308-.084.14-.224.224m4.424-2.128q.056-.112.252-.42t.28-.476q1.456.252 2.464 1.232.42.336.896.532t1.064.28q.616.056 1.008.084t1.12.028q.756-.028 1.064-.028.784 0 1.596-.308.28-.112.336-.42t-.168-.504q-.532-.392-2.772-1.484-2.212-1.092-2.352-1.176-2.408-.756-4.256-2.268-.14-.196-.476-.448-.308-.28-.504-.532-.196-.28-.252-.616-.028-1.092 1.064-1.932l1.764-1.12q2.604-1.036 4.956-1.204.056 0 .308.028.28.028.308.028.056 0 .28.028t.28.056.224.084.224.14q.084.056.196.168.112.084.168.224.084.112.14.28.168.98-.532 1.596-.14 0-.896.028t-.98.056q-.224 0-.84.084-.616.056-.952.14t-.784.252-.84.392q-.392.14-.532.448-.112.308.336.532 1.316.896 3.836 2.1t3.416 1.708q2.492 1.568 2.492 3.416 0 2.632-6.356 2.856-1.4.056-2.996-.42t-2.716-1.344q-1.12-.42-.868-2.1m21.112 3.556q-1.288-.056-1.904-.84-.084-.168-.504-.868-.42-.728-.588-1.26-.168-.56-.084-1.176-.336-3.472-.252-5.012.056-.588-.084-1.736-.168-.644-.308-.756-.812.084-1.204.336-.252 0-.728.196t-.812.14q-.196-.084-.392-.252t-.42-.392q-.196-.252-.336-.364-.112-.28-.084-.784t.196-.756l.924-.812q1.26-.028 2.716-.28l.196-.224V6.272q.644-.7 1.596-.504.756.588.84 1.456.084.224.14 1.82.056 1.568.252 1.764l.532.168q.56-.056 1.428-.196.868-.168 1.26-.196t1.428.028l1.288.056q1.204.168.896 1.4-.476.476-.728.532-.644.056-1.316.168t-1.68.364q-.98.224-1.316.28-.644 0-1.708.392l-.14.196q0 .42-.056 1.008-.056.56-.056.952.028.364.168.812 0 4.9.504 6.104.448.42.756.504.336.084.896-.056l.336-.084q.224-.056.308-.056l.252-.084q.168-.056.224-.084.084-.028.196-.084.14-.084.196-.168l.196-.196q.112-.112.196-.252.112-.14.224-.308.112-.196.252-.42-.028-.14.084-.672t.168-.672q.308-.868 1.12-.84.392-.056.588.14t.364.7l.14.476q-.196 1.372-.42 1.708-.56 1.12-.868 1.54-.28.42-1.036.868-.756.476-2.324.98-.084.028-.644.224-.56.224-.868.224m11.76-9.772q.728-1.456 1.652-2.324 1.036-1.036 2.436-1.176 1.372-.168 2.604.336.532.532.532.868 0 .644-.112.756-.532.532-.896.532-.028 0-.42-.056-.364-.056-.672-.084h-.644q-1.204.168-1.904.98l-.616.784q-.7.98-.868 1.428-.056.14-.308.672-.224.532-.252.812-.056 1.652.196 2.492.14.252.168.56.028.28 0 .476 0 .168-.168.532-.14.336-.224.448-.056.112-.28.504-.252.28-.532.28-.532 0-1.036-.532-.476-.532-.728-1.288l-.028-3.22q-.056-1.092-.448-5.04-.112-1.176 0-1.96.308-.616 1.176-.672.392-.056.672.14t.308.616q.028.112.084.252.084.14.084.224 0 .616.084 2.548zm11.844 8.372q-.868.112-1.792-.224-.924-.364-1.456-1.008-.252-.392-.364-.532-.084-.168-.28-.504-.196-.364-.28-.588-.056-.224-.14-.532t-.084-.588q0-.308.084-.616.028-.952.616-1.932.616-.98 1.232-1.568t1.596-1.4q.196-.14.28-.224 1.176-.952 3.192-.952.42 0 2.66.224.056.056.364.196.336.14.476.308.14.14.028.392l.364.364q.616.364.784.7.252.42.924 2.632.056.224.532 1.512.504 1.288.56 1.54.7 1.288.728 1.708l.14.448q-.028.14-.252.308t-.252.196q-.476.168-1.456-.168-.196-.084-.364-.196l-.224-.224q-.056-.112-.252-.392l-.252-.42-.112-.14q-.308-.728-.952-2.576-1.12 1.904-2.716 3.108-1.596 1.176-3.332 1.148m-.14-2.604q.476 0 1.316-.224 1.372-.504 2.492-1.764 1.092-1.512 1.232-2.66 0-.084.112-.644.112-.588.084-.812-.56.14-1.624.224-1.036.056-1.596.168-.728.112-1.484.7-.756.56-1.148 1.064t-1.064 1.428q-.476.588.168 1.764.504.756 1.512.756m14.448 2.968q-.644 0-1.008-.224-.392-.42-.644-.896-.224-.476-.336-1.12t-.14-.98q-.028-.364-.056-1.232v-1.064q.028-1.652.196-4.452.168-2.828.224-4.032-.028-1.428.14-4.312.168-2.912.084-4.62.224-.728.84-.728.784 0 1.288.896 0 .056.112.28t.14.392l.112 2.016q.028.308.028.672-.084 1.736-.28 4.34t-.308 4.704-.112 4.144l.084 1.484.084 1.456q.056.448.196 1.12.168.672.476 1.232.028.392-.196.7-.364.224-.924.224" style="font-size:28px;font-family:Excalifont, Xiaolai, 'Segoe UI Emoji';dominant-baseline:alphabetic;white-space:pre;fill:#2f9e44"/></g><g stroke-linecap="round"><g transform="translate(123 202.721)"><path d="M0 0c24.45.19 122.26.96 146.71 1.16M0 0c24.45.19 122.26.96 146.71 1.16" stroke="#2f9e44" stroke-width="1" fill="none"/></g><g transform="translate(123 202.721)"><path d="m146.71 1.16-13.64 6.23.1-12.68z" stroke="none" stroke-width="0" fill="#2f9e44" fill-rule="evenodd"/><path d="M146.71 1.16c-2.88 1.31-5.76 2.63-13.64 6.23m13.64-6.23c-3.44 1.57-6.89 3.14-13.64 6.23m0 0c.02-3.18.05-6.36.1-12.68m-.1 12.68c.04-4.95.08-9.89.1-12.68m0 0c3.87 1.84 7.75 3.69 13.54 6.45m-13.54-6.45c3.16 1.51 6.33 3.01 13.54 6.45m0 0q0 0 0 0m0 0q0 0 0 0" stroke="#2f9e44" stroke-width="1" fill="none"/></g></g><mask/><g stroke-linecap="round"><g transform="translate(121.846 196.657)"><path d="M0 0c36.49-10.49 182.43-52.47 218.91-62.96M0 0c36.49-10.49 182.43-52.47 218.91-62.96" stroke="#2f9e44" stroke-width="1" fill="none"/></g><g transform="translate(121.846 196.657)"><path d="m218.91-62.96-11.31 9.85-3.51-12.18z" stroke="none" stroke-width="0" fill="#2f9e44" fill-rule="evenodd"/><path d="M218.91-62.96c-3.09 2.69-6.18 5.38-11.31 9.85m11.31-9.85c-3.74 3.26-7.48 6.52-11.31 9.85m0 0c-1.13-3.93-2.26-7.87-3.51-12.18m3.51 12.18c-.74-2.57-1.48-5.14-3.51-12.18m0 0c3.03.47 6.05.95 14.82 2.33m-14.82-2.33c4.6.72 9.2 1.44 14.82 2.33m0 0q0 0 0 0m0 0q0 0 0 0" stroke="#2f9e44" stroke-width="1" fill="none"/></g></g><mask/><g stroke-linecap="round"><g transform="translate(120.69 211.674)"><path d="M0 0c23.59 25.51 117.93 127.55 141.51 153.07M0 0c23.59 25.51 117.93 127.55 141.51 153.07" stroke="#2f9e44" stroke-width="1" fill="none"/></g><g transform="translate(120.69 211.674)"><path d="m141.51 153.07-13.88-5.68 9.31-8.61z" stroke="none" stroke-width="0" fill="#2f9e44" fill-rule="evenodd"/><path d="M141.51 153.07c-4.13-1.7-8.26-3.39-13.88-5.68m13.88 5.68c-3.17-1.3-6.35-2.6-13.88-5.68m0 0c1.91-1.77 3.82-3.54 9.31-8.61m-9.31 8.61c2.67-2.47 5.34-4.94 9.31-8.61m0 0c.93 2.9 1.86 5.81 4.57 14.29m-4.57-14.29c1.76 5.5 3.52 11.01 4.57 14.29m0 0q0 0 0 0m0 0q0 0 0 0" stroke="#2f9e44" stroke-width="1" fill="none"/></g></g><mask/><g stroke-linecap="round"><g transform="translate(122.423 208.786)"><path d="M0 0c51.7 11.65 258.48 58.24 310.17 69.89M0 0c51.7 11.65 258.48 58.24 310.17 69.89" stroke="#2f9e44" stroke-width="1" fill="none"/></g><g transform="translate(122.423 208.786)"><path d="m310.17 69.89-14.65 3.2 2.78-12.37z" stroke="none" stroke-width="0" fill="#2f9e44" fill-rule="evenodd"/><path d="M310.17 69.89c-4.23.92-8.47 1.85-14.65 3.2m14.65-3.2c-4.8 1.05-9.6 2.09-14.65 3.2m0 0c.67-3 1.35-5.99 2.78-12.37m-2.78 12.37 2.78-12.37m0 0c3.88 2.99 7.75 5.99 11.87 9.17m-11.87-9.17c2.39 1.84 4.78 3.69 11.87 9.17m0 0q0 0 0 0m0 0q0 0 0 0" stroke="#2f9e44" stroke-width="1" fill="none"/></g></g><mask/><g stroke-linecap="round"><g stroke-opacity=".4" fill-opacity=".4" transform="translate(546.165 120.15)"><path d="M0 0c.77-4.05 1.32-18.2 4.61-24.31 3.3-6.12 10.11-11.94 15.17-12.38 5.05-.44 11.59 4.03 15.16 9.73 3.57 5.69 12.08 19.94 6.26 24.44C35.38 1.97 6.87-.42 0 0m0 0c.77-4.05 1.32-18.2 4.61-24.31 3.3-6.12 10.11-11.94 15.17-12.38 5.05-.44 11.59 4.03 15.16 9.73 3.57 5.69 12.08 19.94 6.26 24.44C35.38 1.97 6.87-.42 0 0" stroke="#2f9e44" stroke-width="2" fill="none"/></g></g><mask/><g stroke-opacity=".4" fill-opacity=".4" stroke-linecap="round" transform="translate(556.58 64.382)"><path d="M21.09 9.23c0 .53-.05 1.08-.16 1.6-.1.53-.26 1.05-.47 1.56-.21.5-.47.99-.78 1.45-.3.47-.66.91-1.05 1.32-.4.41-.84.8-1.3 1.14-.47.34-.98.65-1.51.92s-1.09.5-1.67.68c-.57.18-1.17.32-1.77.42-.6.09-1.22.14-1.83.14s-1.23-.05-1.83-.14c-.61-.1-1.21-.24-1.78-.42s-1.14-.41-1.67-.68-1.03-.58-1.5-.92-.91-.73-1.3-1.14-.75-.85-1.06-1.32c-.3-.46-.57-.95-.77-1.45q-.315-.765-.48-1.56C.05 10.31 0 9.76 0 9.23c0-.54.05-1.08.16-1.6.11-.53.27-1.06.48-1.56.2-.5.47-.99.77-1.46.31-.46.67-.9 1.06-1.31s.83-.8 1.3-1.14.97-.66 1.5-.92C5.8.97 6.37.74 6.94.56 7.51.37 8.11.23 8.72.14 9.32.05 9.94 0 10.55 0s1.23.05 1.83.14 1.2.23 1.77.42c.58.18 1.14.41 1.67.68.53.26 1.04.58 1.51.92.46.34.9.73 1.3 1.14.39.41.75.85 1.05 1.31.31.47.57.96.78 1.46s.37 1.03.47 1.56c.11.52.14 1.33.16 1.6.03.27.03-.27 0 0" stroke="#2f9e44" stroke-width="2" fill="none"/></g><g stroke-linecap="round"><g stroke-opacity=".8" fill-opacity=".8" transform="translate(558.295 200.437)"><path d="M0 0c.77-4.05 1.32-18.2 4.61-24.31 3.3-6.12 10.11-11.94 15.17-12.38 5.05-.44 11.59 4.03 15.16 9.73 3.57 5.69 12.08 19.94 6.26 24.44C35.38 1.97 6.87-.42 0 0m0 0c.77-4.05 1.32-18.2 4.61-24.31 3.3-6.12 10.11-11.94 15.17-12.38 5.05-.44 11.59 4.03 15.16 9.73 3.57 5.69 12.08 19.94 6.26 24.44C35.38 1.97 6.87-.42 0 0" stroke="#2f9e44" stroke-width="2" fill="none"/></g></g><mask/><g stroke-opacity=".8" fill-opacity=".8" stroke-linecap="round" transform="translate(568.709 144.669)"><path d="M21.09 9.23c0 .53-.05 1.08-.16 1.6-.1.53-.26 1.05-.47 1.56-.21.5-.47.99-.78 1.45-.3.47-.66.91-1.05 1.32-.4.41-.84.8-1.3 1.14-.47.34-.98.65-1.51.92s-1.09.5-1.67.68c-.57.18-1.17.32-1.77.42-.6.09-1.22.14-1.83.14s-1.23-.05-1.83-.14c-.61-.1-1.21-.24-1.78-.42s-1.14-.41-1.67-.68-1.03-.58-1.5-.92-.91-.73-1.3-1.14-.75-.85-1.06-1.32c-.3-.46-.57-.95-.77-1.45q-.315-.765-.48-1.56C.05 10.31 0 9.76 0 9.23c0-.54.05-1.08.16-1.6.11-.53.27-1.06.48-1.56.2-.5.47-.99.77-1.46.31-.46.67-.9 1.06-1.31s.83-.8 1.3-1.14.97-.66 1.5-.92C5.8.97 6.37.74 6.94.56 7.51.37 8.11.23 8.72.14 9.32.05 9.94 0 10.55 0s1.23.05 1.83.14 1.2.23 1.77.42c.58.18 1.14.41 1.67.68.53.26 1.04.58 1.51.92.46.34.9.73 1.3 1.14.39.41.75.85 1.05 1.31.31.47.57.96.78 1.46s.37 1.03.47 1.56c.11.52.14 1.33.16 1.6.03.27.03-.27 0 0" stroke="#2f9e44" stroke-width="2" fill="none"/></g><g stroke-linecap="round"><g stroke-opacity=".4" fill-opacity=".4" transform="translate(564.648 311.915)"><path d="M0 0c.77-4.05 1.32-18.2 4.61-24.31 3.3-6.12 10.11-11.94 15.17-12.38 5.05-.44 11.59 4.03 15.16 9.73 3.57 5.69 12.08 19.94 6.26 24.44C35.38 1.97 6.87-.42 0 0m0 0c.77-4.05 1.32-18.2 4.61-24.31 3.3-6.12 10.11-11.94 15.17-12.38 5.05-.44 11.59 4.03 15.16 9.73 3.57 5.69 12.08 19.94 6.26 24.44C35.38 1.97 6.87-.42 0 0" stroke="#2f9e44" stroke-width="2" fill="none"/></g></g><mask/><g stroke-opacity=".4" fill-opacity=".4" stroke-linecap="round" transform="translate(575.063 256.146)"><path d="M21.09 9.23c0 .53-.05 1.08-.16 1.6-.1.53-.26 1.05-.47 1.56-.21.5-.47.99-.78 1.45-.3.47-.66.91-1.05 1.32-.4.41-.84.8-1.3 1.14-.47.34-.98.65-1.51.92s-1.09.5-1.67.68c-.57.18-1.17.32-1.77.42-.6.09-1.22.14-1.83.14s-1.23-.05-1.83-.14c-.61-.1-1.21-.24-1.78-.42s-1.14-.41-1.67-.68-1.03-.58-1.5-.92-.91-.73-1.3-1.14-.75-.85-1.06-1.32c-.3-.46-.57-.95-.77-1.45q-.315-.765-.48-1.56C.05 10.31 0 9.76 0 9.23c0-.54.05-1.08.16-1.6.11-.53.27-1.06.48-1.56.2-.5.47-.99.77-1.46.31-.46.67-.9 1.06-1.31s.83-.8 1.3-1.14.97-.66 1.5-.92C5.8.97 6.37.74 6.94.56 7.51.37 8.11.23 8.72.14 9.32.05 9.94 0 10.55 0s1.23.05 1.83.14 1.2.23 1.77.42c.58.18 1.14.41 1.67.68.53.26 1.04.58 1.51.92.46.34.9.73 1.3 1.14.39.41.75.85 1.05 1.31.31.47.57.96.78 1.46s.37 1.03.47 1.56c.11.52.14 1.33.16 1.6.03.27.03-.27 0 0" stroke="#2f9e44" stroke-width="2" fill="none"/></g><g stroke-linecap="round"><g stroke-opacity=".4" fill-opacity=".4" transform="translate(557.717 395.09)"><path d="M0 0c.77-4.05 1.32-18.2 4.61-24.31 3.3-6.12 10.11-11.94 15.17-12.38 5.05-.44 11.59 4.03 15.16 9.73 3.57 5.69 12.08 19.94 6.26 24.44C35.38 1.97 6.87-.42 0 0m0 0c.77-4.05 1.32-18.2 4.61-24.31 3.3-6.12 10.11-11.94 15.17-12.38 5.05-.44 11.59 4.03 15.16 9.73 3.57 5.69 12.08 19.94 6.26 24.44C35.38 1.97 6.87-.42 0 0" stroke="#2f9e44" stroke-width="2" fill="none"/></g></g><mask/><g stroke-opacity=".4" fill-opacity=".4" stroke-linecap="round" transform="translate(568.131 339.322)"><path d="M21.09 9.23c0 .53-.05 1.08-.16 1.6-.1.53-.26 1.05-.47 1.56-.21.5-.47.99-.78 1.45-.3.47-.66.91-1.05 1.32-.4.41-.84.8-1.3 1.14-.47.34-.98.65-1.51.92s-1.09.5-1.67.68c-.57.18-1.17.32-1.77.42-.6.09-1.22.14-1.83.14s-1.23-.05-1.83-.14c-.61-.1-1.21-.24-1.78-.42s-1.14-.41-1.67-.68-1.03-.58-1.5-.92-.91-.73-1.3-1.14-.75-.85-1.06-1.32c-.3-.46-.57-.95-.77-1.45q-.315-.765-.48-1.56C.05 10.31 0 9.76 0 9.23c0-.54.05-1.08.16-1.6.11-.53.27-1.06.48-1.56.2-.5.47-.99.77-1.46.31-.46.67-.9 1.06-1.31s.83-.8 1.3-1.14.97-.66 1.5-.92C5.8.97 6.37.74 6.94.56 7.51.37 8.11.23 8.72.14 9.32.05 9.94 0 10.55 0s1.23.05 1.83.14 1.2.23 1.77.42c.58.18 1.14.41 1.67.68.53.26 1.04.58 1.51.92.46.34.9.73 1.3 1.14.39.41.75.85 1.05 1.31.31.47.57.96.78 1.46s.37 1.03.47 1.56c.11.52.14 1.33.16 1.6.03.27.03-.27 0 0" stroke="#2f9e44" stroke-width="2" fill="none"/></g><g stroke-linecap="round"><g stroke-opacity=".4" fill-opacity=".4" transform="translate(610.857 120.728)"><path d="M0 0c.77-4.05 1.32-18.2 4.61-24.31 3.3-6.12 10.11-11.94 15.17-12.38 5.05-.44 11.59 4.03 15.16 9.73 3.57 5.69 12.08 19.94 6.26 24.44C35.38 1.97 6.87-.42 0 0m0 0c.77-4.05 1.32-18.2 4.61-24.31 3.3-6.12 10.11-11.94 15.17-12.38 5.05-.44 11.59 4.03 15.16 9.73 3.57 5.69 12.08 19.94 6.26 24.44C35.38 1.97 6.87-.42 0 0" stroke="#2f9e44" stroke-width="2" fill="none"/></g></g><mask/><g stroke-opacity=".4" fill-opacity=".4" stroke-linecap="round" transform="translate(621.271 64.96)"><path d="M21.09 9.23c0 .53-.05 1.08-.16 1.6-.1.53-.26 1.05-.47 1.56-.21.5-.47.99-.78 1.45-.3.47-.66.91-1.05 1.32-.4.41-.84.8-1.3 1.14-.47.34-.98.65-1.51.92s-1.09.5-1.67.68c-.57.18-1.17.32-1.77.42-.6.09-1.22.14-1.83.14s-1.23-.05-1.83-.14c-.61-.1-1.21-.24-1.78-.42s-1.14-.41-1.67-.68-1.03-.58-1.5-.92-.91-.73-1.3-1.14-.75-.85-1.06-1.32c-.3-.46-.57-.95-.77-1.45q-.315-.765-.48-1.56C.05 10.31 0 9.76 0 9.23c0-.54.05-1.08.16-1.6.11-.53.27-1.06.48-1.56.2-.5.47-.99.77-1.46.31-.46.67-.9 1.06-1.31s.83-.8 1.3-1.14.97-.66 1.5-.92C5.8.97 6.37.74 6.94.56 7.51.37 8.11.23 8.72.14 9.32.05 9.94 0 10.55 0s1.23.05 1.83.14 1.2.23 1.77.42c.58.18 1.14.41 1.67.68.53.26 1.04.58 1.51.92.46.34.9.73 1.3 1.14.39.41.75.85 1.05 1.31.31.47.57.96.78 1.46s.37 1.03.47 1.56c.11.52.14 1.33.16 1.6.03.27.03-.27 0 0" stroke="#2f9e44" stroke-width="2" fill="none"/></g><g stroke-linecap="round"><g stroke-opacity=".8" fill-opacity=".8" transform="translate(622.987 201.015)"><path d="M0 0c.77-4.05 1.32-18.2 4.61-24.31 3.3-6.12 10.11-11.94 15.17-12.38 5.05-.44 11.59 4.03 15.16 9.73 3.57 5.69 12.08 19.94 6.26 24.44C35.38 1.97 6.87-.42 0 0m0 0c.77-4.05 1.32-18.2 4.61-24.31 3.3-6.12 10.11-11.94 15.17-12.38 5.05-.44 11.59 4.03 15.16 9.73 3.57 5.69 12.08 19.94 6.26 24.44C35.38 1.97 6.87-.42 0 0" stroke="#2f9e44" stroke-width="2" fill="none"/></g></g><mask/><g stroke-opacity=".8" fill-opacity=".8" stroke-linecap="round" transform="translate(633.4 145.246)"><path d="M21.09 9.23c0 .53-.05 1.08-.16 1.6-.1.53-.26 1.05-.47 1.56-.21.5-.47.99-.78 1.45-.3.47-.66.91-1.05 1.32-.4.41-.84.8-1.3 1.14-.47.34-.98.65-1.51.92s-1.09.5-1.67.68c-.57.18-1.17.32-1.77.42-.6.09-1.22.14-1.83.14s-1.23-.05-1.83-.14c-.61-.1-1.21-.24-1.78-.42s-1.14-.41-1.67-.68-1.03-.58-1.5-.92-.91-.73-1.3-1.14-.75-.85-1.06-1.32c-.3-.46-.57-.95-.77-1.45q-.315-.765-.48-1.56C.05 10.31 0 9.76 0 9.23c0-.54.05-1.08.16-1.6.11-.53.27-1.06.48-1.56.2-.5.47-.99.77-1.46.31-.46.67-.9 1.06-1.31s.83-.8 1.3-1.14.97-.66 1.5-.92C5.8.97 6.37.74 6.94.56 7.51.37 8.11.23 8.72.14 9.32.05 9.94 0 10.55 0s1.23.05 1.83.14 1.2.23 1.77.42c.58.18 1.14.41 1.67.68.53.26 1.04.58 1.51.92.46.34.9.73 1.3 1.14.39.41.75.85 1.05 1.31.31.47.57.96.78 1.46s.37 1.03.47 1.56c.11.52.14 1.33.16 1.6.03.27.03-.27 0 0" stroke="#2f9e44" stroke-width="2" fill="none"/></g><g stroke-linecap="round"><g stroke-opacity=".4" fill-opacity=".4" transform="translate(629.34 312.493)"><path d="M0 0c.77-4.05 1.32-18.2 4.61-24.31 3.3-6.12 10.11-11.94 15.17-12.38 5.05-.44 11.59 4.03 15.16 9.73 3.57 5.69 12.08 19.94 6.26 24.44C35.38 1.97 6.87-.42 0 0m0 0c.77-4.05 1.32-18.2 4.61-24.31 3.3-6.12 10.11-11.94 15.17-12.38 5.05-.44 11.59 4.03 15.16 9.73 3.57 5.69 12.08 19.94 6.26 24.44C35.38 1.97 6.87-.42 0 0" stroke="#2f9e44" stroke-width="2" fill="none"/></g></g><mask/><g stroke-opacity=".4" fill-opacity=".4" stroke-linecap="round" transform="translate(639.754 256.724)"><path d="M21.09 9.23c0 .53-.05 1.08-.16 1.6-.1.53-.26 1.05-.47 1.56-.21.5-.47.99-.78 1.45-.3.47-.66.91-1.05 1.32-.4.41-.84.8-1.3 1.14-.47.34-.98.65-1.51.92s-1.09.5-1.67.68c-.57.18-1.17.32-1.77.42-.6.09-1.22.14-1.83.14s-1.23-.05-1.83-.14c-.61-.1-1.21-.24-1.78-.42s-1.14-.41-1.67-.68-1.03-.58-1.5-.92-.91-.73-1.3-1.14-.75-.85-1.06-1.32c-.3-.46-.57-.95-.77-1.45q-.315-.765-.48-1.56C.05 10.31 0 9.76 0 9.23c0-.54.05-1.08.16-1.6.11-.53.27-1.06.48-1.56.2-.5.47-.99.77-1.46.31-.46.67-.9 1.06-1.31s.83-.8 1.3-1.14.97-.66 1.5-.92C5.8.97 6.37.74 6.94.56 7.51.37 8.11.23 8.72.14 9.32.05 9.94 0 10.55 0s1.23.05 1.83.14 1.2.23 1.77.42c.58.18 1.14.41 1.67.68.53.26 1.04.58 1.51.92.46.34.9.73 1.3 1.14.39.41.75.85 1.05 1.31.31.47.57.96.78 1.46s.37 1.03.47 1.56c.11.52.14 1.33.16 1.6.03.27.03-.27 0 0" stroke="#2f9e44" stroke-width="2" fill="none"/></g><g stroke-linecap="round"><g stroke-opacity=".4" fill-opacity=".4" transform="translate(622.409 395.668)"><path d="M0 0c.77-4.05 1.32-18.2 4.61-24.31 3.3-6.12 10.11-11.94 15.17-12.38 5.05-.44 11.59 4.03 15.16 9.73 3.57 5.69 12.08 19.94 6.26 24.44C35.38 1.97 6.87-.42 0 0m0 0c.77-4.05 1.32-18.2 4.61-24.31 3.3-6.12 10.11-11.94 15.17-12.38 5.05-.44 11.59 4.03 15.16 9.73 3.57 5.69 12.08 19.94 6.26 24.44C35.38 1.97 6.87-.42 0 0" stroke="#2f9e44" stroke-width="2" fill="none"/></g></g><mask/><g stroke-opacity=".4" fill-opacity=".4" stroke-linecap="round" transform="translate(632.823 339.9)"><path d="M21.09 9.23c0 .53-.05 1.08-.16 1.6-.1.53-.26 1.05-.47 1.56-.21.5-.47.99-.78 1.45-.3.47-.66.91-1.05 1.32-.4.41-.84.8-1.3 1.14-.47.34-.98.65-1.51.92s-1.09.5-1.67.68c-.57.18-1.17.32-1.77.42-.6.09-1.22.14-1.83.14s-1.23-.05-1.83-.14c-.61-.1-1.21-.24-1.78-.42s-1.14-.41-1.67-.68-1.03-.58-1.5-.92-.91-.73-1.3-1.14-.75-.85-1.06-1.32c-.3-.46-.57-.95-.77-1.45q-.315-.765-.48-1.56C.05 10.31 0 9.76 0 9.23c0-.54.05-1.08.16-1.6.11-.53.27-1.06.48-1.56.2-.5.47-.99.77-1.46.31-.46.67-.9 1.06-1.31s.83-.8 1.3-1.14.97-.66 1.5-.92C5.8.97 6.37.74 6.94.56 7.51.37 8.11.23 8.72.14 9.32.05 9.94 0 10.55 0s1.23.05 1.83.14 1.2.23 1.77.42c.58.18 1.14.41 1.67.68.53.26 1.04.58 1.51.92.46.34.9.73 1.3 1.14.39.41.75.85 1.05 1.31.31.47.57.96.78 1.46s.37 1.03.47 1.56c.11.52.14 1.33.16 1.6.03.27.03-.27 0 0" stroke="#2f9e44" stroke-width="2" fill="none"/></g><g transform="translate(144.455 116.866)"><path d="M2.6 18.02q-.46 0-.72-.16-.28-.3-.46-.64-.16-.34-.24-.8t-.1-.7q-.02-.26-.04-.88v-.76q.02-1.18.14-3.18.12-2.02.16-2.88-.02-1.02.1-3.08.12-2.08.06-3.3.16-.52.6-.52.56 0 .92.64 0 .04.08.2t.1.28l.08 1.44q.02.22.02.48-.06 1.24-.2 3.1t-.22 3.36-.08 2.96l.06 1.06.06 1.04q.04.32.14.8.12.48.34.88.02.28-.14.5-.26.16-.66.16m2.7-2.14q-.26-1.06.1-2.08.38-1.04 1.16-2.22 1.26-1.64 2.8-2.14l.32-.06q.46-.08.72-.06 1.12.04 1.94.68t.88 1.74q.02 1.06-.8 1.96t-1.8.98q-.36.14-.78.14-1.02 0-2.12-.58l-.6-.3q-.26.52-.26.8.22 1.12 1.2 1.9 1 .76 2.14.68.68.08 1.82-.28l.58-.16q.6-.24 1.66-.32.48-.06.54.38v.68q-.68.74-1.62.8l-.5.14q-1.62.46-2.38.42-1.6.1-2.94-.74-1.38-.72-2.06-2.36m2.5-3.06q.48.16.58.16.16.08.32.14t.36.08q.22.02.32.02h.72q.44-.08.9-.44.48-.38.56-.78.18-.62-.94-.98l-.36-.12q-.4 0-.86.28-.44.28-.64.48-.2.18-.66.66l-.22.36zm17.9 4.82q-.86.1-1-.24-.06-.1-.16-.4-.1-.32-.1-.36v-4.86q.08-.54.52-.54.24 0 .5.18t.38.42l.12.64q-.08.44.12 1.66.96-1.2 1.26-1.92.44-.5.38-1.02.88-.5 1.52-.38.36.1.76.9v2.3q.36-.4.98-1.24t.92-1.2q.6-.82 1.14-1.14.84.1 1.26.64.58.98.76 2.78-.02.36.04.76t.18.88.16.76q.2.56.14 1.02-.02.26-.26.34t-.5.02q-.44-.1-.76-.74-.14-.3-.26-.58-.1-.3-.2-.72-.08-.44-.12-.58-.02-.14-.1-.74-.08-.62-.08-.66-.14-.4-.32-.4-.08.04-.3.24t-.44.42q-.2.2-.44.46l-.28.28-.2.28-.74.96-.2.28q-.08.08-.3.38-.2.28-.36.42-.14.14-.34.22-.34.06-.64-.06-.3-.14-.38-.46-.12-.16-.12-.38v-2.3h-.04q-.08-.04-.1-.02-1.1 1.54-2.14 3.46-.18.24-.26.24m11.6-1.76q-.26-1.06.1-2.08.38-1.04 1.16-2.22 1.26-1.64 2.8-2.14l.32-.06q.46-.08.72-.06 1.12.04 1.94.68t.88 1.74q.02 1.06-.8 1.96t-1.8.98q-.36.14-.78.14-1.02 0-2.12-.58l-.6-.3q-.26.52-.26.8.22 1.12 1.2 1.9 1 .76 2.14.68.68.08 1.82-.28l.58-.16q.6-.24 1.66-.32.48-.06.54.38v.68q-.68.74-1.62.8l-.5.14q-1.62.46-2.38.42-1.6.1-2.94-.74-1.38-.72-2.06-2.36m2.5-3.06q.48.16.58.16.16.08.32.14t.36.08q.22.02.32.02h.72q.44-.08.9-.44.48-.38.56-.78.18-.62-.94-.98l-.36-.12q-.4 0-.86.28-.44.28-.64.48-.2.18-.66.66l-.22.36zm8.76 3.4q.04-.08.18-.3t.2-.34q1.04.18 1.76.88.3.24.64.38t.76.2q.44.04.72.06t.8.02q.54-.02.76-.02.56 0 1.14-.22.2-.08.24-.3t-.12-.36q-.38-.28-1.98-1.06-1.58-.78-1.68-.84-1.72-.54-3.04-1.62-.1-.14-.34-.32-.22-.2-.36-.38-.14-.2-.18-.44-.02-.78.76-1.38l1.26-.8q1.86-.74 3.54-.86.04 0 .22.02.2.02.22.02.04 0 .2.02t.2.04.16.06.16.1q.06.04.14.12.08.06.12.16.06.08.1.2.12.7-.38 1.14-.1 0-.64.02t-.7.04q-.16 0-.6.06-.44.04-.68.1t-.56.18-.6.28q-.28.1-.38.32-.08.22.24.38.94.64 2.74 1.5t2.44 1.22q1.78 1.12 1.78 2.44 0 1.88-4.54 2.04-1 .04-2.14-.3t-1.94-.96q-.8-.3-.62-1.5m10.86 0q.04-.08.18-.3t.2-.34q1.04.18 1.76.88.3.24.64.38t.76.2q.44.04.72.06t.8.02q.54-.02.76-.02.56 0 1.14-.22.2-.08.24-.3t-.12-.36q-.38-.28-1.98-1.06-1.58-.78-1.68-.84-1.72-.54-3.04-1.62-.1-.14-.34-.32-.22-.2-.36-.38-.14-.2-.18-.44-.02-.78.76-1.38l1.26-.8q1.86-.74 3.54-.86.04 0 .22.02.2.02.22.02.04 0 .2.02t.2.04.16.06.16.1q.06.04.14.12.08.06.12.16.06.08.1.2.12.7-.38 1.14-.1 0-.64.02t-.7.04q-.16 0-.6.06-.44.04-.68.1t-.56.18-.6.28q-.28.1-.38.32-.08.22.24.38.94.64 2.74 1.5t2.44 1.22q1.78 1.12 1.78 2.44 0 1.88-4.54 2.04-1 .04-2.14-.3t-1.94-.96q-.8-.3-.62-1.5m13.44 1.54q-.62.08-1.28-.16-.66-.26-1.04-.72-.18-.28-.26-.38-.06-.12-.2-.36-.14-.26-.2-.42-.04-.16-.1-.38t-.06-.42q0-.22.06-.44.02-.68.44-1.38.44-.7.88-1.12t1.14-1q.14-.1.2-.16.84-.68 2.28-.68.3 0 1.9.16.04.04.26.14.24.1.34.22.1.1.02.28l.26.26q.44.26.56.5.18.3.66 1.88.04.16.38 1.08.36.92.4 1.1.5.92.52 1.22l.1.32q-.02.1-.18.22t-.18.14q-.34.12-1.04-.12-.14-.06-.26-.14l-.16-.16q-.04-.08-.18-.28l-.18-.3-.08-.1q-.22-.52-.68-1.84-.8 1.36-1.94 2.22-1.14.84-2.38.82m-.1-1.86q.34 0 .94-.16.98-.36 1.78-1.26.78-1.08.88-1.9 0-.06.08-.46.08-.42.06-.58-.4.1-1.16.16-.74.04-1.14.12-.52.08-1.06.5-.54.4-.82.76t-.76 1.02q-.34.42.12 1.26.36.54 1.08.54m13.26 9.22q-1-.4-2.42-1.52-.44-.22-.68-.36-.22-.14-.48-.42t-.36-.62q-.04-.84.38-1.14.46-.36.92-.36.36 0 .6.24.1.1.52.6.42.52.74.76t.7.3q.06 0 .08-.02.6-.22.84-.74.26-.5.36-1.28t.22-1.08q.04-.38.08-1.2.06-.82.08-1.2-1.14.3-2.22.3-.98 0-2.02-.24-.82-.48-1.42-1.2-.58-.74-.6-1.6.08-1.08.96-2.12.9-1.06 1.86-1.54.74-.62 1.84-.62 1.42 0 2.08.98 0 .1-.02.34 0 .96-.22.96-.1 0-.26-.16-.24-.14-1.3-.26-.44-.02-.92.28t-.8.66q-.32.34-.78.9-.1.14-.16.2-.1.1-.14.22t0 .24.08.22q.06.1.16.22.12.1.18.18.08.06.2.18.12.1.16.14.6.24 1.32.24.64 0 1.3-.2.68-.22 1.22-.7t.58-1.12q.18-2.38 1.02-2.66h.06q.54.16 1.04.94l.06.1-.02-.02q.04.88-.54 2.46-.56 1.56-.66 2.2-.64 2.12-.94 4.52-.06.66-.3 1.18-.22.54-.74 1.42-.6.9-.98 1.16-.3.18-.66.24m6.36-9.24q-.26-1.06.1-2.08.38-1.04 1.16-2.22 1.26-1.64 2.8-2.14l.32-.06q.46-.08.72-.06 1.12.04 1.94.68t.88 1.74q.02 1.06-.8 1.96t-1.8.98q-.36.14-.78.14-1.02 0-2.12-.58l-.6-.3q-.26.52-.26.8.22 1.12 1.2 1.9 1 .76 2.14.68.68.08 1.82-.28l.58-.16q.6-.24 1.66-.32.48-.06.54.38v.68q-.68.74-1.62.8l-.5.14q-1.62.46-2.38.42-1.6.1-2.94-.74-1.38-.72-2.06-2.36m2.5-3.06q.48.16.58.16.16.08.32.14t.36.08q.22.02.32.02h.72q.44-.08.9-.44.48-.38.56-.78.18-.62-.94-.98l-.36-.12q-.4 0-.86.28-.44.28-.64.48-.2.18-.66.66l-.22.36z" style="font-size:20px;font-family:Excalifont, Xiaolai, 'Segoe UI Emoji';dominant-baseline:alphabetic;white-space:pre;fill:#2f9e44"/><path d="M3.34 43q-.98 0-1.56-.52-.28-.22-.5-.52-.32-.52-.4-1.34-.06-.82.02-1.42v-.14q.2-1.6 1.52-2.82 1.32-1.24 2.9-.98.94.04 1.68.46.76.4.84 1.02l.02-.08.02-.8.08-2.44.02-.8q.02-.14.06-.62.04-.5.06-.72.02-.24.08-.6.08-.38.18-.68.04-.38.2-1.32.18-.96.18-1 .08-.58.64-.76.32.02.7.22.38.18.42.42.2.48.28 1.54l-.02 1.62q0 .74-.26 2.9-.06.42-.38 1.2t-.38 1.2v1.28l.14.36.38 1.28q.12.48.3.94.18.44.46 1.1.28.64.38.86.04.62-.26.86-.08.12-.22.12-.4 0-.86-.28-.94-.94-1.46-3.16-.78 1.26-1.12 1.58-1.44 1.48-2.66 1.88Q3.6 43 3.34 43m-.8-3.3q-.16.66.28 1.04t1.1.38q.46 0 .78-.16 1.76-.9 3-3.9-.04.12-.32.1-.26-.02-.3-.02-1.44-.2-2.52-.1-2.04 1.04-2.02 2.66m19.06 3.18q-.12 0-.3-.08l-.36-.18q-.2-.12-.3-.16-.18-.2-.34-.44-.14-.26-.22-.42t-.16-.54q-.06-.38-.08-.46-.02-.1-.08-.6-.06-.52-.06-.56-1.26 2.48-3.7 3.12-.38-.02-.66-.06-.26-.06-.54-.24-.28-.2-.38-.26-.08-.08-.44-.46t-.44-.46q-.22-.5-.32-1t-.12-.74q-.02-.26 0-.96t.02-.92q.12-.12.12-.38v-.12q-.06-.3.26-1.4.04-.08.22-.26.2-.2.28-.24.18-.04.54.04.38.08.44.08.38.34.38 1.26 0 .04-.06.14l-.06.12q-.4.86-.4 1.8-.12 1.02.46 1.98.14.06.32.16.2.08.32.12.14.04.32.04.58 0 1.14-.58 1.5-2.06 2.08-3.56l.06-.82q.08-.82.34-1.1.22-.28.36-.28h.14q.14-.02.24.02.12.04.28.2.18.14.24.18.38.64.32 1.52 0 .76-.08.94-.02.74-.02 1.36 0 .6.14 1.32t.46 1.42q.32.9-.04 1.28-.12.2-.32.18m16.42-.26h-.72q-.44.02-.7.02t-.64-.02-.7-.08q-2-.34-2.92-1.54-.64-.86-.5-2.28.14-.94.54-1.58.42-.64 1.24-1.34.68-.78 1.64-1.18t1.9-.22q.42-.02.86.22.46.24.64.42.2.18.66.64.28.36.32.68t-.02.76q-.26.48-.52.5-.06 0-.36.04-.3.02-.46-.04t-.24-.26q-.28-.7-.48-.82-.3-.2-.72-.22t-.74.02q-.7.18-1.22.72-.52.52-1.08 1.4 0 .04-.06.4-.04.34 0 .62t.26.38q.32.4 1.36.78.64.24 1.42.26t1.34-.04l2.16-.12q.16.06.36.28.2.2.2.34 0 .48-.8.98-.76.28-2.02.28m7.54.1q-1.02-.22-1.42-.32-.38-.1-.82-.4-.44-.32-.66-.74-.2-.42-.52-1.3l.1-2.12q-.14-.22-.14-.64t.14-.62q.86-.62 2.18-1.44.84-.5 2.1-.5 1.48 0 2.84.64 1.38.64 2.28 1.76 1.04 1.42.5 2.66-1.28 2.2-3.8 2.78-.32.12-.72.18-.38.06-.62.06-.24.02-.76 0zm.82-1.52q.8 0 1.66-.22.88-.24 1.62-.8.74-.58.84-1.36-.02-.24-.08-.42-.04-.18-.16-.34-.1-.18-.18-.26-.06-.08-.24-.26-.16-.18-.22-.24-1.7-.94-2.58-.94-.62 0-.88.12-.56.22-.6.26-.12.1-.38.28t-.36.28q-.66.5-.72.98-.06.24-.08.52v.62q.02.34.02.54.14.28.46.62.32.32.56.38.46.24 1.32.24m16.26 1.68q-.12 0-.3-.08l-.36-.18q-.2-.12-.3-.16-.18-.2-.34-.44-.14-.26-.22-.42t-.16-.54q-.06-.38-.08-.46-.02-.1-.08-.6-.06-.52-.06-.56-1.26 2.48-3.7 3.12-.38-.02-.66-.06-.26-.06-.54-.24-.28-.2-.38-.26-.08-.08-.44-.46t-.44-.46q-.22-.5-.32-1t-.12-.74q-.02-.26 0-.96t.02-.92q.12-.12.12-.38v-.12q-.06-.3.26-1.4.04-.08.22-.26.2-.2.28-.24.18-.04.54.04.38.08.44.08.38.34.38 1.26 0 .04-.06.14l-.06.12q-.4.86-.4 1.8-.12 1.02.46 1.98.14.06.32.16.2.08.32.12.14.04.32.04.58 0 1.14-.58 1.5-2.06 2.08-3.56l.06-.82q.08-.82.34-1.1.22-.28.36-.28h.14q.14-.02.24.02.12.04.28.2.18.14.24.18.38.64.32 1.52 0 .76-.08.94-.02.74-.02 1.36 0 .6.14 1.32t.46 1.42q.32.9-.04 1.28-.12.2-.32.18m4.34-6.1q.52-1.04 1.18-1.66.74-.74 1.74-.84.98-.12 1.86.24.38.38.38.62 0 .46-.08.54-.38.38-.64.38-.02 0-.3-.04-.26-.04-.48-.06h-.46q-.86.12-1.36.7l-.44.56q-.5.7-.62 1.02-.04.1-.22.48-.16.38-.18.58-.04 1.18.14 1.78.1.18.12.4.02.2 0 .34 0 .12-.12.38-.1.24-.16.32-.04.08-.2.36-.18.2-.38.2-.38 0-.74-.38-.34-.38-.52-.92l-.02-2.3q-.04-.78-.32-3.6-.08-.84 0-1.4.22-.44.84-.48.28-.04.48.1t.22.44q.02.08.06.18.06.1.06.16 0 .44.06 1.82zm6.68 4.44q.04-.08.18-.3t.2-.34q1.04.18 1.76.88.3.24.64.38t.76.2q.44.04.72.06t.8.02q.54-.02.76-.02.56 0 1.14-.22.2-.08.24-.3t-.12-.36q-.38-.28-1.98-1.06-1.58-.78-1.68-.84-1.72-.54-3.04-1.62-.1-.14-.34-.32-.22-.2-.36-.38-.14-.2-.18-.44-.02-.78.76-1.38l1.26-.8q1.86-.74 3.54-.86.04 0 .22.02.2.02.22.02.04 0 .2.02t.2.04.16.06.16.1q.06.04.14.12.08.06.12.16.06.08.1.2.12.7-.38 1.14-.1 0-.64.02t-.7.04q-.16 0-.6.06-.44.04-.68.1t-.56.18-.6.28q-.28.1-.38.32-.08.22.24.38.94.64 2.74 1.5t2.44 1.22q1.78 1.12 1.78 2.44 0 1.88-4.54 2.04-1 .04-2.14-.3t-1.94-.96q-.8-.3-.62-1.5" style="font-size:20px;font-family:Excalifont, Xiaolai, 'Segoe UI Emoji';dominant-baseline:alphabetic;white-space:pre;fill:#2f9e44"/></g><g stroke-linecap="round"><g transform="translate(356.353 397.952)"><path d="M0 0c-21.37.1-87.7 25.13-128.23.58s-95.78-123.22-114.94-147.87M0 0c-21.37.1-87.7 25.13-128.23.58s-95.78-123.22-114.94-147.87" stroke="#f08c00" stroke-width="1" fill="none"/></g><g transform="translate(356.353 397.952)"><path d="m-243.17-147.29 12.84 7.76-10.53 7.06z" stroke="none" stroke-width="0" fill="#f08c00" fill-rule="evenodd"/><path d="M-243.17-147.29c4.34 2.62 8.67 5.24 12.84 7.76m-12.84-7.76c2.61 1.58 5.22 3.15 12.84 7.76m0 0c-3.23 2.16-6.46 4.33-10.53 7.06m10.53-7.06-10.53 7.06m0 0c-.78-4.98-1.55-9.96-2.31-14.82m2.31 14.82c-.63-4.05-1.26-8.1-2.31-14.82m0 0q0 0 0 0m0 0q0 0 0 0" stroke="#f08c00" stroke-width="1" fill="none"/></g></g><mask/><g stroke-linecap="round"><g transform="translate(344.8 79.403)"><path d="M0 0c-29.36-2.21-137.66-30.32-176.17-13.28-38.51 17.03-45.73 96.26-54.87 115.52M0 0c-29.36-2.21-137.66-30.32-176.17-13.28-38.51 17.03-45.73 96.26-54.87 115.52" stroke="#f08c00" stroke-width="1" fill="none"/></g><g transform="translate(344.8 79.403)"><path d="m-231.04 102.24-2.37-14.82 12.19 3.48z" stroke="none" stroke-width="0" fill="#f08c00" fill-rule="evenodd"/><path d="m-231.04 102.24-2.37-14.82m2.37 14.82c-.93-5.81-1.86-11.62-2.37-14.82m0 0c3.72 1.07 7.44 2.13 12.19 3.48m-12.19-3.48c4.63 1.32 9.26 2.64 12.19 3.48m0 0c-3.34 3.86-6.69 7.72-9.82 11.34m9.82-11.34c-2.89 3.33-5.78 6.67-9.82 11.34m0 0q0 0 0 0m0 0q0 0 0 0" stroke="#f08c00" stroke-width="1" fill="none"/></g></g><mask/><g transform="translate(87.767 335.174)"><path d="M8.22 24.72q-.62.18-1.04-.7-.24-.44-.24-1.36 0-.9.12-1.82.14-.9.28-2.06t.12-1.88v-1.58q-1.22 1.08-2.8 1.56-1.2.12-1.24.12-.8 0-1.28-.38Q.94 16.06.9 14.1q-.12-.72.12-1.28.24-.58.58-.9t1-.76q1.64-1.14 4.08-1.14.34 0 .64.08.32.08.8.28.5.18.68.24.08.08.22.24.14.14.2.22t.1.22q.06.12.04.28-.04.4-.06.76t-.04.76q0 .38-.02.62.02.7-.14 2.94-.2 2.7-.14 6.32.08.2.08.44 0 .26-.04.56-.04.32-.04.48-.08.18-.24.22-.14.06-.32.04zm-4.06-9.48q.94-.04 1.8-.7.88-.68 1.52-1.6.02-.04.04-.16t.04-.22l.02-.1q-.08-.26-.24-.54t-.2-.28q-1.42.1-3.66.98-.98.38-.72 1.86.08.46.5.66t.9.1m16.12 2.64q-.12 0-.3-.08l-.36-.18q-.2-.12-.3-.16-.18-.2-.34-.44-.14-.26-.22-.42t-.16-.54q-.06-.38-.08-.46-.02-.1-.08-.6-.06-.52-.06-.56-1.26 2.48-3.7 3.12-.38-.02-.66-.06-.26-.06-.54-.24-.28-.2-.38-.26-.08-.08-.44-.46t-.44-.46q-.22-.5-.32-1t-.12-.74q-.02-.26 0-.96t.02-.92q.12-.12.12-.38v-.12q-.06-.3.26-1.4.04-.08.22-.26.2-.2.28-.24.18-.04.54.04.38.08.44.08.38.34.38 1.26 0 .04-.06.14l-.06.12q-.4.86-.4 1.8-.12 1.02.46 1.98.14.06.32.16.2.08.32.12.14.04.32.04.58 0 1.14-.58 1.5-2.06 2.08-3.56l.06-.82q.08-.82.34-1.1.22-.28.36-.28h.14q.14-.02.24.02.12.04.28.2.18.14.24.18.38.64.32 1.52 0 .76-.08.94-.02.74-.02 1.36 0 .6.14 1.32t.46 1.42q.32.9-.04 1.28-.12.2-.32.18m2.26-2q-.26-1.06.1-2.08.38-1.04 1.16-2.22 1.26-1.64 2.8-2.14l.32-.06q.46-.08.72-.06 1.12.04 1.94.68t.88 1.74q.02 1.06-.8 1.96t-1.8.98q-.36.14-.78.14-1.02 0-2.12-.58l-.6-.3q-.26.52-.26.8.22 1.12 1.2 1.9 1 .76 2.14.68.68.08 1.82-.28l.58-.16q.6-.24 1.66-.32.48-.06.54.38v.68q-.68.74-1.62.8l-.5.14q-1.62.46-2.38.42-1.6.1-2.94-.74-1.38-.72-2.06-2.36m2.5-3.06q.48.16.58.16.16.08.32.14t.36.08q.22.02.32.02h.72q.44-.08.9-.44.48-.38.56-.78.18-.62-.94-.98l-.36-.12q-.4 0-.86.28-.44.28-.64.48-.2.18-.66.66l-.22.36zm10.04 5.2q-.46 0-.72-.16-.28-.3-.46-.64-.16-.34-.24-.8t-.1-.7q-.02-.26-.04-.88v-.76q.02-1.18.14-3.18.12-2.02.16-2.88-.02-1.02.1-3.08.12-2.08.06-3.3.16-.52.6-.52.56 0 .92.64 0 .04.08.2t.1.28l.08 1.44q.02.22.02.48-.06 1.24-.2 3.1t-.22 3.36-.08 2.96l.06 1.06.06 1.04q.04.32.14.8.12.48.34.88.02.28-.14.5-.26.16-.66.16m10.12 6.7q-.62.18-1.04-.7-.24-.44-.24-1.36 0-.9.12-1.82.14-.9.28-2.06t.12-1.88v-1.58q-1.22 1.08-2.8 1.56-1.2.12-1.24.12-.8 0-1.28-.38-1.2-.56-1.24-2.52-.12-.72.12-1.28.24-.58.58-.9t1-.76q1.64-1.14 4.08-1.14.34 0 .64.08.32.08.8.28.5.18.68.24.08.08.22.24.14.14.2.22t.1.22q.06.12.04.28-.04.4-.06.76t-.04.76q0 .38-.02.62.02.7-.14 2.94-.2 2.7-.14 6.32.08.2.08.44 0 .26-.04.56-.04.32-.04.48-.08.18-.24.22-.14.06-.32.04zm-4.06-9.48q.94-.04 1.8-.7.88-.68 1.52-1.6.02-.04.04-.16t.04-.22l.02-.1q-.08-.26-.24-.54t-.2-.28q-1.42.1-3.66.98-.98.38-.72 1.86.08.46.5.66t.9.1m16.12 2.64q-.12 0-.3-.08l-.36-.18q-.2-.12-.3-.16-.18-.2-.34-.44-.14-.26-.22-.42t-.16-.54q-.06-.38-.08-.46-.02-.1-.08-.6-.06-.52-.06-.56-1.26 2.48-3.7 3.12-.38-.02-.66-.06-.26-.06-.54-.24-.28-.2-.38-.26-.08-.08-.44-.46t-.44-.46q-.22-.5-.32-1t-.12-.74q-.02-.26 0-.96t.02-.92q.12-.12.12-.38v-.12q-.06-.3.26-1.4.04-.08.22-.26.2-.2.28-.24.18-.04.54.04.38.08.44.08.38.34.38 1.26 0 .04-.06.14l-.06.12q-.4.86-.4 1.8-.12 1.02.46 1.98.14.06.32.16.2.08.32.12.14.04.32.04.58 0 1.14-.58 1.5-2.06 2.08-3.56l.06-.82q.08-.82.34-1.1.22-.28.36-.28h.14q.14-.02.24.02.12.04.28.2.18.14.24.18.38.64.32 1.52 0 .76-.08.94-.02.74-.02 1.36 0 .6.14 1.32t.46 1.42q.32.9-.04 1.28-.12.2-.32.18m2.26-2q-.26-1.06.1-2.08.38-1.04 1.16-2.22 1.26-1.64 2.8-2.14l.32-.06q.46-.08.72-.06 1.12.04 1.94.68t.88 1.74q.02 1.06-.8 1.96t-1.8.98q-.36.14-.78.14-1.02 0-2.12-.58l-.6-.3q-.26.52-.26.8.22 1.12 1.2 1.9 1 .76 2.14.68.68.08 1.82-.28l.58-.16q.6-.24 1.66-.32.48-.06.54.38v.68q-.68.74-1.62.8l-.5.14q-1.62.46-2.38.42-1.6.1-2.94-.74-1.38-.72-2.06-2.36m2.5-3.06q.48.16.58.16.16.08.32.14t.36.08q.22.02.32.02h.72q.44-.08.9-.44.48-.38.56-.78.18-.62-.94-.98l-.36-.12q-.4 0-.86.28-.44.28-.64.48-.2.18-.66.66l-.22.36zm8.76 3.4q.04-.08.18-.3t.2-.34q1.04.18 1.76.88.3.24.64.38t.76.2q.44.04.72.06t.8.02q.54-.02.76-.02.56 0 1.14-.22.2-.08.24-.3t-.12-.36q-.38-.28-1.98-1.06-1.58-.78-1.68-.84-1.72-.54-3.04-1.62-.1-.14-.34-.32-.22-.2-.36-.38-.14-.2-.18-.44-.02-.78.76-1.38l1.26-.8q1.86-.74 3.54-.86.04 0 .22.02.2.02.22.02.04 0 .2.02t.2.04.16.06.16.1q.06.04.14.12.08.06.12.16.06.08.1.2.12.7-.38 1.14-.1 0-.64.02t-.7.04q-.16 0-.6.06-.44.04-.68.1t-.56.18-.6.28q-.28.1-.38.32-.08.22.24.38.94.64 2.74 1.5t2.44 1.22q1.78 1.12 1.78 2.44 0 1.88-4.54 2.04-1 .04-2.14-.3t-1.94-.96q-.8-.3-.62-1.5" style="font-size:20px;font-family:Excalifont, Xiaolai, 'Segoe UI Emoji';dominant-baseline:alphabetic;white-space:pre;fill:#f08c00"/><path d="M8.22 49.72q-.62.18-1.04-.7-.24-.44-.24-1.36 0-.9.12-1.82.14-.9.28-2.06t.12-1.88v-1.58q-1.22 1.08-2.8 1.56-1.2.12-1.24.12-.8 0-1.28-.38Q.94 41.06.9 39.1q-.12-.72.12-1.28.24-.58.58-.9t1-.76q1.64-1.14 4.08-1.14.34 0 .64.08.32.08.8.28.5.18.68.24.08.08.22.24.14.14.2.22t.1.22q.06.12.04.28-.04.4-.06.76t-.04.76q0 .38-.02.62.02.7-.14 2.94-.2 2.7-.14 6.32.08.2.08.44 0 .26-.04.56-.04.32-.04.48-.08.18-.24.22-.14.06-.32.04zm-4.06-9.48q.94-.04 1.8-.7.88-.68 1.52-1.6.02-.04.04-.16t.04-.22l.02-.1q-.08-.26-.24-.54t-.2-.28q-1.42.1-3.66.98-.98.38-.72 1.86.08.46.5.66t.9.1m16.12 2.64q-.12 0-.3-.08l-.36-.18q-.2-.12-.3-.16-.18-.2-.34-.44-.14-.26-.22-.42t-.16-.54q-.06-.38-.08-.46-.02-.1-.08-.6-.06-.52-.06-.56-1.26 2.48-3.7 3.12-.38-.02-.66-.06-.26-.06-.54-.24-.28-.2-.38-.26-.08-.08-.44-.46t-.44-.46q-.22-.5-.32-1t-.12-.74q-.02-.26 0-.96t.02-.92q.12-.12.12-.38v-.12q-.06-.3.26-1.4.04-.08.22-.26.2-.2.28-.24.18-.04.54.04.38.08.44.08.38.34.38 1.26 0 .04-.06.14l-.06.12q-.4.86-.4 1.8-.12 1.02.46 1.98.14.06.32.16.2.08.32.12.14.04.32.04.58 0 1.14-.58 1.5-2.06 2.08-3.56l.06-.82q.08-.82.34-1.1.22-.28.36-.28h.14q.14-.02.24.02.12.04.28.2.18.14.24.18.38.64.32 1.52 0 .76-.08.94-.02.74-.02 1.36 0 .6.14 1.32t.46 1.42q.32.9-.04 1.28-.12.2-.32.18m2.26-2q-.26-1.06.1-2.08.38-1.04 1.16-2.22 1.26-1.64 2.8-2.14l.32-.06q.46-.08.72-.06 1.12.04 1.94.68t.88 1.74q.02 1.06-.8 1.96t-1.8.98q-.36.14-.78.14-1.02 0-2.12-.58l-.6-.3q-.26.52-.26.8.22 1.12 1.2 1.9 1 .76 2.14.68.68.08 1.82-.28l.58-.16q.6-.24 1.66-.32.48-.06.54.38v.68q-.68.74-1.62.8l-.5.14q-1.62.46-2.38.42-1.6.1-2.94-.74-1.38-.72-2.06-2.36m2.5-3.06q.48.16.58.16.16.08.32.14t.36.08q.22.02.32.02h.72q.44-.08.9-.44.48-.38.56-.78.18-.62-.94-.98l-.36-.12q-.4 0-.86.28-.44.28-.64.48-.2.18-.66.66l-.22.36zm8.76 3.4q.04-.08.18-.3t.2-.34q1.04.18 1.76.88.3.24.64.38t.76.2q.44.04.72.06t.8.02q.54-.02.76-.02.56 0 1.14-.22.2-.08.24-.3t-.12-.36q-.38-.28-1.98-1.06-1.58-.78-1.68-.84-1.72-.54-3.04-1.62-.1-.14-.34-.32-.22-.2-.36-.38-.14-.2-.18-.44-.02-.78.76-1.38l1.26-.8q1.86-.74 3.54-.86.04 0 .22.02.2.02.22.02.04 0 .2.02t.2.04.16.06.16.1q.06.04.14.12.08.06.12.16.06.08.1.2.12.7-.38 1.14-.1 0-.64.02t-.7.04q-.16 0-.6.06-.44.04-.68.1t-.56.18-.6.28q-.28.1-.38.32-.08.22.24.38.94.64 2.74 1.5t2.44 1.22q1.78 1.12 1.78 2.44 0 1.88-4.54 2.04-1 .04-2.14-.3t-1.94-.96q-.8-.3-.62-1.5m15.08 2.54q-.92-.04-1.36-.6-.06-.12-.36-.62-.3-.52-.42-.9-.12-.4-.06-.84-.24-2.48-.18-3.58.04-.42-.06-1.24-.12-.46-.22-.54-.58.06-.86.24-.18 0-.52.14t-.58.1q-.14-.06-.28-.18t-.3-.28q-.14-.18-.24-.26-.08-.2-.06-.56t.14-.54l.66-.58q.9-.02 1.94-.2l.14-.16v-3.68q.46-.5 1.14-.36.54.42.6 1.04.06.16.1 1.3.04 1.12.18 1.26l.38.12q.4-.04 1.02-.14.62-.12.9-.14t1.02.02l.92.04q.86.12.64 1-.34.34-.52.38-.46.04-.94.12t-1.2.26q-.7.16-.94.2-.46 0-1.22.28l-.1.14q0 .3-.04.72-.04.4-.04.68.02.26.12.58 0 3.5.36 4.36.32.3.54.36.24.06.64-.04l.24-.06q.16-.04.22-.04l.18-.06q.12-.04.16-.06.06-.02.14-.06.1-.06.14-.12l.14-.14q.08-.08.14-.18.08-.1.16-.22.08-.14.18-.3-.02-.1.06-.48t.12-.48q.22-.62.8-.6.28-.04.42.1t.26.5l.1.34q-.14.98-.3 1.22-.4.8-.62 1.1-.2.3-.74.62-.54.34-1.66.7l-.46.16q-.4.16-.62.16m8.4-10.14q-.3.06-.62-.04t-.82-.4-.56-.32q-.34-.22-.46-.6-.1-.4.08-.78.14-.36.48-.56t.7-.16q.12.02.18 0 .06-.04.16.02t.14.08q.06 0 .14.1.1.08.14.12.04.02.12.14.08.1.1.14.04.04.12.14t.1.14q.08.2.76.88.12.16.1.5t-.2.5zm.16 9.12q-.54.1-.88-.24-.34-.6-.38-.88-.04-.24-.12-1.04-.08-.82-.16-1.7-.08-.9-.1-1.06-.04-.54 0-1.14.3-.52 1-.38.26.12.52.76 0 .42.06.88.08.46.14.78.08.32.22.84t.2.8q0 .16-.04.52-.02.34-.06.66-.02.32-.02.34-.02.06-.06.22-.02.16-.06.26-.02.1-.1.22-.06.1-.16.16m6.26-.02q-1.02-.22-1.42-.32-.38-.1-.82-.4-.44-.32-.66-.74-.2-.42-.52-1.3l.1-2.12q-.14-.22-.14-.64t.14-.62q.86-.62 2.18-1.44.84-.5 2.1-.5 1.48 0 2.84.64 1.38.64 2.28 1.76 1.04 1.42.5 2.66-1.28 2.2-3.8 2.78-.32.12-.72.18-.38.06-.62.06-.24.02-.76 0zm.82-1.52q.8 0 1.66-.22.88-.24 1.62-.8.74-.58.84-1.36-.02-.24-.08-.42-.04-.18-.16-.34-.1-.18-.18-.26-.06-.08-.24-.26-.16-.18-.22-.24-1.7-.94-2.58-.94-.62 0-.88.12-.56.22-.6.26-.12.1-.38.28t-.36.28q-.66.5-.72.98-.06.24-.08.52v.62q.02.34.02.54.14.28.46.62.32.32.56.38.46.24 1.32.24M80 42.68q-.2 0-.24-.2-.04-.06-.28-.44-.22-.4-.36-.56-.38-1.32-.5-2.54-.06-.14-.18-.6-.1-.48-.2-.66-.04-.16-.24-.34-.18-.2-.3-.2-.16 0-.22.04-1.32 1.12-2.4 2.78-.04.08-.52.88-.46.78-.62 1.14-.22.36-.64.26l-.88-.9v-.62q.1-.52.22-2.02t.16-1.78q0-.1-.1-.7-.02-.08-.02-.26 0-.32.2-.52.22-.2.54-.18.64 0 .9.4.14.54.14 1.4 0 .28-.04.68t-.04.42q.1-.08.38-.42.28-.36.58-.74t.36-.46q.12-.14.34-.46.24-.32.42-.52.2-.2.48-.42.42-.34 1.12-.38.22-.08.44.04.24.1.5.44.26.32.32.44.08.12.32.5.62 1.44.62 3.14l.38 1.64q0 .06.12.4.14.34.14.36.04.54-.26.76-.06.02-.3.12-.22.08-.34.08m3.12-1.46q.04-.08.18-.3t.2-.34q1.04.18 1.76.88.3.24.64.38t.76.2q.44.04.72.06t.8.02q.54-.02.76-.02.56 0 1.14-.22.2-.08.24-.3t-.12-.36q-.38-.28-1.98-1.06-1.58-.78-1.68-.84-1.72-.54-3.04-1.62-.1-.14-.34-.32-.22-.2-.36-.38-.14-.2-.18-.44-.02-.78.76-1.38l1.26-.8q1.86-.74 3.54-.86.04 0 .22.02.2.02.22.02.04 0 .2.02t.2.04.16.06.16.1q.06.04.14.12.08.06.12.16.06.08.1.2.12.7-.38 1.14-.1 0-.64.02t-.7.04q-.16 0-.6.06-.44.04-.68.1t-.56.18-.6.28q-.28.1-.38.32-.08.22.24.38.94.64 2.74 1.5t2.44 1.22q1.78 1.12 1.78 2.44 0 1.88-4.54 2.04-1 .04-2.14-.3t-1.94-.96q-.8-.3-.62-1.5" style="font-size:20px;font-family:Excalifont, Xiaolai, 'Segoe UI Emoji';dominant-baseline:alphabetic;white-space:pre;fill:#f08c00"/></g><g transform="translate(10 116.288)"><path d="M3.22 17.88q-.36-.1-.68-.42-.12.12-.4.26-.54.1-.88-.36-.18-.28-.26-.88l.16-1.8.18-1.36q.02-.18.1-1.08t.2-1.34V9q-.08-.08-.24-.42-.14-.36-.14-.46-.1-.66 0-1.4.06-.14.22-.24.18-.1.46-.16.28-.08.32-.1.74.16 1.02.12.42 0 .88-.1.48-.1.74-.18.28-.1.88-.3.6-.22.8-.3.26-.06.84-.2.6-.16 1-.22.42-.08.94-.08.22-.02.92.1l.72.14.2.14q.2.16.3.26.1.08.22.24.14.14.16.26v1.26q-.08.16-.38.24-.28.08-.5.02-.08-.04-.44-.42-.34-.38-.58-.34-2.24-.1-3.66.38-.22.1-.9.34-.68.22-1.12.44-.44.2-.76.48l-.14.12q-.16 2.08 0 2.42.46-.14 1.28-.14h.88q.34-.08 1.28-.36.96-.3 1.64-.46.7-.16 1.26-.18h.64q.44-.02.72-.02.3-.02.66.02.38.04.64.12.9.6.76 1.08.08.46-.52.68-.12.06-.52-.08-.4-.16-.48-.16-1.24-.16-2.42.08t-2.78.8q-.38.12-1.22.48-.82.36-1.06.54-.18.04-.56-.04-.36-.1-.44-.1-.28.1-.28 2.04.8-.04 1.44-.06.66-.04.96-.04h.54q.22-.02.28-.02t.1-.02q.46-.1 1.64-.16 1.18-.08 1.28-.08 1.58-.08 3.28.24.28.1.42.36.16.24.08.54-.16.22-.38.38-.84.02-2.28.18-1.42.16-2.02.2-.14.02-.76.12-.6.1-1.14.2t-.76.18q-.18.02-.58.16-.38.14-.5.1zm19.64-.2q-.2 0-.24-.2-.04-.06-.28-.44-.22-.4-.36-.56-.38-1.32-.5-2.54-.06-.14-.18-.6-.1-.48-.2-.66-.04-.16-.24-.34-.18-.2-.3-.2-.16 0-.22.04-1.32 1.12-2.4 2.78-.04.08-.52.88-.46.78-.62 1.14-.22.36-.64.26l-.88-.9v-.62q.1-.52.22-2.02t.16-1.78q0-.1-.1-.7-.02-.08-.02-.26 0-.32.2-.52.22-.2.54-.18.64 0 .9.4.14.54.14 1.4 0 .28-.04.68t-.04.42q.1-.08.38-.42.28-.36.58-.74t.36-.46q.12-.14.34-.46.24-.32.42-.52.2-.2.48-.42.42-.34 1.12-.38.22-.08.44.04.24.1.5.44.26.32.32.44.08.12.32.5.62 1.44.62 3.14l.38 1.64q0 .06.12.4.14.34.14.36.04.54-.26.76-.06.02-.3.12-.22.08-.34.08m3.12-1.46q.04-.08.18-.3t.2-.34q1.04.18 1.76.88.3.24.64.38t.76.2q.44.04.72.06t.8.02q.54-.02.76-.02.56 0 1.14-.22.2-.08.24-.3t-.12-.36q-.38-.28-1.98-1.06-1.58-.78-1.68-.84-1.72-.54-3.04-1.62-.1-.14-.34-.32-.22-.2-.36-.38-.14-.2-.18-.44-.02-.78.76-1.38l1.26-.8q1.86-.74 3.54-.86.04 0 .22.02.2.02.22.02.04 0 .2.02t.2.04.16.06.16.1q.06.04.14.12.08.06.12.16.06.08.1.2.12.7-.38 1.14-.1 0-.64.02t-.7.04q-.16 0-.6.06-.44.04-.68.1t-.56.18-.6.28q-.28.1-.38.32-.08.22.24.38.94.64 2.74 1.5t2.44 1.22q1.78 1.12 1.78 2.44 0 1.88-4.54 2.04-1 .04-2.14-.3t-1.94-.96q-.8-.3-.62-1.5m10.34-.34q-.26-1.06.1-2.08.38-1.04 1.16-2.22 1.26-1.64 2.8-2.14l.32-.06q.46-.08.72-.06 1.12.04 1.94.68t.88 1.74q.02 1.06-.8 1.96t-1.8.98q-.36.14-.78.14-1.02 0-2.12-.58l-.6-.3q-.26.52-.26.8.22 1.12 1.2 1.9 1 .76 2.14.68.68.08 1.82-.28l.58-.16q.6-.24 1.66-.32.48-.06.54.38v.68q-.68.74-1.62.8l-.5.14q-1.62.46-2.38.42-1.6.1-2.94-.74-1.38-.72-2.06-2.36m2.5-3.06q.48.16.58.16.16.08.32.14t.36.08q.22.02.32.02h.72q.44-.08.9-.44.48-.38.56-.78.18-.62-.94-.98l-.36-.12q-.4 0-.86.28-.44.28-.64.48-.2.18-.66.66l-.22.36zm10.32-4.2q-.3.06-.62-.04t-.82-.4-.56-.32q-.34-.22-.46-.6-.1-.4.08-.78.14-.36.48-.56t.7-.16q.12.02.18 0 .06-.04.16.02t.14.08q.06 0 .14.1.1.08.14.12.04.02.12.14.08.1.1.14.04.04.12.14t.1.14q.08.2.76.88.12.16.1.5t-.2.5zm.16 9.12q-.54.1-.88-.24-.34-.6-.38-.88-.04-.24-.12-1.04-.08-.82-.16-1.7-.08-.9-.1-1.06-.04-.54 0-1.14.3-.52 1-.38.26.12.52.76 0 .42.06.88.08.46.14.78.08.32.22.84t.2.8q0 .16-.04.52-.02.34-.06.66-.02.32-.02.34-.02.06-.06.22-.02.16-.06.26-.02.1-.1.22-.06.1-.16.16m7.38 7.38q-1-.4-2.42-1.52-.44-.22-.68-.36-.22-.14-.48-.42t-.36-.62q-.04-.84.38-1.14.46-.36.92-.36.36 0 .6.24.1.1.52.6.42.52.74.76t.7.3q.06 0 .08-.02.6-.22.84-.74.26-.5.36-1.28t.22-1.08q.04-.38.08-1.2.06-.82.08-1.2-1.14.3-2.22.3-.98 0-2.02-.24-.82-.48-1.42-1.2-.58-.74-.6-1.6.08-1.08.96-2.12.9-1.06 1.86-1.54.74-.62 1.84-.62 1.42 0 2.08.98 0 .1-.02.34 0 .96-.22.96-.1 0-.26-.16-.24-.14-1.3-.26-.44-.02-.92.28t-.8.66q-.32.34-.78.9-.1.14-.16.2-.1.1-.14.22t0 .24.08.22q.06.1.16.22.12.1.18.18.08.06.2.18.12.1.16.14.6.24 1.32.24.64 0 1.3-.2.68-.22 1.22-.7t.58-1.12q.18-2.38 1.02-2.66h.06q.54.16 1.04.94l.06.1-.02-.02q.04.88-.54 2.46-.56 1.56-.66 2.2-.64 2.12-.94 4.52-.06.66-.3 1.18-.22.54-.74 1.42-.6.9-.98 1.16-.3.18-.66.24m14.28-7.44q-.2 0-.24-.2-.04-.06-.28-.44-.22-.4-.36-.56-.38-1.32-.5-2.54-.06-.14-.18-.6-.1-.48-.2-.66-.04-.16-.24-.34-.18-.2-.3-.2-.16 0-.22.04-1.32 1.12-2.4 2.78-.04.08-.52.88-.46.78-.62 1.14-.22.36-.64.26l-.88-.9v-.62q.1-.52.22-2.02t.16-1.78q0-.1-.1-.7-.02-.08-.02-.26 0-.32.2-.52.22-.2.54-.18.64 0 .9.4.14.54.14 1.4 0 .28-.04.68t-.04.42q.1-.08.38-.42.28-.36.58-.74t.36-.46q.12-.14.34-.46.24-.32.42-.52.2-.2.48-.42.42-.34 1.12-.38.22-.08.44.04.24.1.5.44.26.32.32.44.08.12.32.5.62 1.44.62 3.14l.38 1.64q0 .06.12.4.14.34.14.36.04.54-.26.76-.06.02-.3.12-.22.08-.34.08m5.7.08q-.62.08-1.28-.16-.66-.26-1.04-.72-.18-.28-.26-.38-.06-.12-.2-.36-.14-.26-.2-.42-.04-.16-.1-.38t-.06-.42q0-.22.06-.44.02-.68.44-1.38.44-.7.88-1.12t1.14-1q.14-.1.2-.16.84-.68 2.28-.68.3 0 1.9.16.04.04.26.14.24.1.34.22.1.1.02.28l.26.26q.44.26.56.5.18.3.66 1.88.04.16.38 1.08.36.92.4 1.1.5.92.52 1.22l.1.32q-.02.1-.18.22t-.18.14q-.34.12-1.04-.12-.14-.06-.26-.14l-.16-.16q-.04-.08-.18-.28l-.18-.3-.08-.1q-.22-.52-.68-1.84-.8 1.36-1.94 2.22-1.14.84-2.38.82m-.1-1.86q.34 0 .94-.16.98-.36 1.78-1.26.78-1.08.88-1.9 0-.06.08-.46.08-.42.06-.58-.4.1-1.16.16-.74.04-1.14.12-.52.08-1.06.5-.54.4-.82.76t-.76 1.02q-.34.42.12 1.26.36.54 1.08.54M93 17.68q-.2 0-.24-.2-.04-.06-.28-.44-.22-.4-.36-.56-.38-1.32-.5-2.54-.06-.14-.18-.6-.1-.48-.2-.66-.04-.16-.24-.34-.18-.2-.3-.2-.16 0-.22.04-1.32 1.12-2.4 2.78-.04.08-.52.88-.46.78-.62 1.14-.22.36-.64.26l-.88-.9v-.62q.1-.52.22-2.02t.16-1.78q0-.1-.1-.7-.02-.08-.02-.26 0-.32.2-.52.22-.2.54-.18.64 0 .9.4.14.54.14 1.4 0 .28-.04.68t-.04.42q.1-.08.38-.42.28-.36.58-.74t.36-.46q.12-.14.34-.46.24-.32.42-.52.2-.2.48-.42.42-.34 1.12-.38.22-.08.44.04.24.1.5.44.26.32.32.44.08.12.32.5.62 1.44.62 3.14l.38 1.64q0 .06.12.4.14.34.14.36.04.54-.26.76-.06.02-.3.12-.22.08-.34.08m7.34 1.08q-.92-.04-1.36-.6-.06-.12-.36-.62-.3-.52-.42-.9-.12-.4-.06-.84-.24-2.48-.18-3.58.04-.42-.06-1.24-.12-.46-.22-.54-.58.06-.86.24-.18 0-.52.14t-.58.1q-.14-.06-.28-.18t-.3-.28q-.14-.18-.24-.26-.08-.2-.06-.56t.14-.54l.66-.58q.9-.02 1.94-.2l.14-.16V4.48q.46-.5 1.14-.36.54.42.6 1.04.06.16.1 1.3.04 1.12.18 1.26l.38.12q.4-.04 1.02-.14.62-.12.9-.14t1.02.02l.92.04q.86.12.64 1-.34.34-.52.38-.46.04-.94.12t-1.2.26q-.7.16-.94.2-.46 0-1.22.28l-.1.14q0 .3-.04.72-.04.4-.04.68.02.26.12.58 0 3.5.36 4.36.32.3.54.36.24.06.64-.04l.24-.06q.16-.04.22-.04l.18-.06q.12-.04.16-.06.06-.02.14-.06.1-.06.14-.12l.14-.14q.08-.08.14-.18.08-.1.16-.22.08-.14.18-.3-.02-.1.06-.48t.12-.48q.22-.62.8-.6.28-.04.42.1t.26.5l.1.34q-.14.98-.3 1.22-.4.8-.62 1.1-.2.3-.74.62-.54.34-1.66.7l-.46.16q-.4.16-.62.16" style="font-size:20px;font-family:Excalifont, Xiaolai, 'Segoe UI Emoji';dominant-baseline:alphabetic;white-space:pre;fill:#1971c2"/></g></svg>